<?xml version="1.0" encoding="utf-8"?>
<!-- Generator: Adobe Illustrator 16.0.0, SVG Export Plug-In . SVG Version: 6.00 Build 0)  -->
<!DOCTYPE svg PUBLIC "-//W3C//DTD SVG 1.1//EN" "http://www.w3.org/Graphics/SVG/1.1/DTD/svg11.dtd">
<svg version="1.1" id="Layer_1" xmlns="http://www.w3.org/2000/svg" xmlns:xlink="http://www.w3.org/1999/xlink" x="0px" y="0px"
	 width="800px" height="800px" viewBox="0 0 800 800" enable-background="new 0 0 800 800" xml:space="preserve">
<rect display="none" fill="#2100C1" width="805" height="803"/>
<rect x="-0.5" y="-1.5" display="none" fill="#53287F" stroke="#000000" stroke-miterlimit="10" width="804" height="803"/>
<g>
	<g opacity="0.78">
		<linearGradient id="SVGID_1_" gradientUnits="userSpaceOnUse" x1="142.687" y1="154.4023" x2="481.8965" y2="154.4023">
			<stop  offset="0.0284" style="stop-color:#58CED8"/>
			<stop  offset="1" style="stop-color:#1D7CD8"/>
		</linearGradient>
		<polygon fill="url(#SVGID_1_)" points="142.96,242.479 142.687,241.686 305.315,185.733 305.315,66.326 305.947,66.696 
			481.896,169.981 481.472,170.706 306.154,67.791 306.154,186.331 305.871,186.429 		"/>
	</g>
	<g>
		<g>
			<linearGradient id="SVGID_2_" gradientUnits="userSpaceOnUse" x1="278.7373" y1="324.5264" x2="324.4414" y2="324.5264">
				<stop  offset="0" style="stop-color:#FF7F8A"/>
				<stop  offset="0.1047" style="stop-color:#F6798B"/>
				<stop  offset="0.2787" style="stop-color:#DC6A8E"/>
				<stop  offset="0.5007" style="stop-color:#B35192"/>
				<stop  offset="0.7596" style="stop-color:#7A2E98"/>
				<stop  offset="0.7629" style="stop-color:#792E98"/>
			</linearGradient>
			<path fill="url(#SVGID_2_)" d="M292.755,369.284c2.524,0.228,4.991,0.781,7.522,0.678c3.786-0.156,7.669-0.381,11.128-1.924
				c3.46-1.543,6.451-4.707,6.692-8.489c0.149-2.352-0.755-4.654-0.778-7.012c-0.038-3.979,2.38-7.493,4.38-10.935
				c2-3.442,3.687-7.637,2.135-11.301c-1.771-4.183-7.156-6.106-8.515-10.442c-1.626-5.188,3.386-10.083,4.033-15.483
				c0.405-3.367-0.93-6.675-2.298-9.779c-1.578-3.58-3.271-7.175-5.839-10.126c-2.568-2.949-6.154-5.22-10.062-5.385
				c-3.908-0.162-8.023,2.184-9.139,5.935c-1.146,3.848,0.929,7.949,0.529,11.947c-0.693,6.95-8.386,11.323-10.023,18.113
				c-1.146,4.754,0.907,9.626,2.902,14.09c0.576,1.29,1.159,2.614,1.276,4.02c0.43,5.229-5.322,8.727-7.257,13.603
				c-1.696,4.273-0.169,9.32,2.817,12.815C282.26,359.608,285.232,368.61,292.755,369.284z"/>
			<g>
				<path fill="#FFFFFF" d="M300.046,371.805c-0.292,0.006-0.664-4.229-0.894-11.091c-0.219-6.862-0.27-16.364,0.305-26.84
					c0.584-10.479,1.685-19.918,2.66-26.712c0.987-6.796,1.824-10.963,2.114-10.926c0.308,0.041,0.014,4.276-0.578,11.101
					c-0.582,6.828-1.433,16.242-2.013,26.659c-0.573,10.414-0.766,19.862-0.943,26.712
					C300.532,367.554,300.357,371.799,300.046,371.805z"/>
			</g>
		</g>
		<g>
			<linearGradient id="SVGID_3_" gradientUnits="userSpaceOnUse" x1="255.9756" y1="342.4277" x2="296.853" y2="342.4277">
				<stop  offset="0" style="stop-color:#FF7F8A"/>
				<stop  offset="0.1047" style="stop-color:#F6798B"/>
				<stop  offset="0.2787" style="stop-color:#DC6A8E"/>
				<stop  offset="0.5007" style="stop-color:#B35192"/>
				<stop  offset="0.7596" style="stop-color:#7A2E98"/>
				<stop  offset="0.7629" style="stop-color:#792E98"/>
			</linearGradient>
			<path fill="url(#SVGID_3_)" d="M282.254,374.419c1.781-0.619,3.624-0.997,5.31-1.84c2.521-1.262,5.087-2.599,6.963-4.704
				c1.875-2.102,2.938-5.163,1.948-7.802c-0.617-1.64-1.934-2.927-2.668-4.52c-1.242-2.686-0.674-5.81-0.368-8.755
				s0.169-6.306-2.003-8.321c-2.479-2.296-6.719-1.958-8.964-4.482c-2.688-3.023-0.782-7.877-1.991-11.738
				c-0.753-2.408-2.669-4.245-4.545-5.932c-2.163-1.949-4.409-3.87-7.053-5.088c-2.643-1.218-5.77-1.662-8.472-0.581
				c-2.702,1.081-4.775,3.933-4.388,6.815c0.397,2.961,3.058,5.113,4.007,7.943c1.651,4.929-2.232,10.245-1.27,15.352
				c0.675,3.573,3.555,6.253,6.271,8.674c0.785,0.699,1.584,1.418,2.093,2.336c1.888,3.417-0.947,7.546-0.771,11.444
				c0.155,3.417,2.731,6.375,5.824,7.833C272.178,371.055,276.944,376.256,282.254,374.419z"/>
			<g>
				<path fill="#FFFFFF" d="M287.97,373.901c-0.267,0.125-1.876-2.605-4.175-7.171c-2.29-4.566-5.256-10.992-8.068-18.282
					c-2.806-7.296-4.914-14.052-6.279-18.975c-1.358-4.932-1.996-8.034-1.714-8.118c0.295-0.09,1.456,2.855,3.186,7.646
					c1.737,4.792,4.063,11.422,6.846,18.659c2.79,7.234,5.512,13.712,7.437,18.432C287.135,370.806,288.249,373.77,287.97,373.901z"
					/>
			</g>
		</g>
	</g>
	<g>
		<path fill="#86A2B7" d="M157.632,440.502l165.071-94.896c0,0,247.94,134.537,301.512,164.421
			c4.524,2.525,4.574,9.012,0.089,11.604c-30.114,17.418-120.303,69.589-162.394,94.088c-15.302,8.906-34.195,8.925-49.52,0.056
			l-254.8-147.476C146.896,462.108,146.918,446.66,157.632,440.502z"/>
		<path fill="#86A2B7" d="M344.458,121.456l281.298,161.425c5.306,3.076,8.571,8.747,8.571,14.88v200.357
			c0,5.379-3.004,10.308-7.782,12.773l0,0L322.065,334.227V134.384c2.574-4.968,5.813-9.369,11.223-11.917
			C336.421,119.795,340.897,119.39,344.458,121.456z"/>
		<linearGradient id="SVGID_4_" gradientUnits="userSpaceOnUse" x1="319.2466" y1="345.6553" x2="526.0184" y2="310.6974">
			<stop  offset="0.0284" style="stop-color:#DEE8F2"/>
			<stop  offset="1" style="stop-color:#C6CFD8"/>
		</linearGradient>
		<path fill="url(#SVGID_4_)" d="M626.545,510.892L322.065,336.904V136.292c0-7.526,8.124-12.25,14.665-8.528l284.856,162.085
			c3.066,1.744,4.959,5,4.959,8.527V510.892z"/>
		<path fill="#DEE8F2" d="M156.996,431.8l165.07-94.896c0,0,307.313,172.418,304.479,173.988
			c-2.188,1.214-114.312,66.466-165.271,96.126c-15.302,8.904-34.195,8.925-49.52,0.056l-254.8-147.477
			C146.26,453.406,146.283,437.959,156.996,431.8z"/>
		<g>
			<polygon fill="#6C6C96" points="311.694,361.413 325.742,351.543 343.664,361.91 329.701,371.817 			"/>
			<polygon fill="#6C6C96" points="331.964,373.037 346.01,363.166 363.934,373.535 349.97,383.441 			"/>
			<polygon fill="#6C6C96" points="352.738,385.289 366.784,375.417 384.708,385.785 370.744,395.691 			"/>
			<polygon fill="#6C6C96" points="374.009,397.396 388.055,387.523 405.979,397.892 392.015,407.798 			"/>
			<polygon fill="#6C6C96" points="394.058,408.813 408.105,398.941 426.029,409.31 412.066,419.216 			"/>
			<polygon fill="#6C6C96" points="414.974,421.08 429.021,411.209 446.945,421.577 432.982,431.484 			"/>
			<polygon fill="#6C6C96" points="435.779,433.556 449.825,423.686 467.749,434.052 453.786,443.96 			"/>
			<polygon fill="#6C6C96" points="456.393,444.988 470.438,435.119 488.362,445.487 474.398,455.393 			"/>
			<polygon fill="#6C6C96" points="477.275,457.294 491.321,447.422 509.245,457.79 495.282,467.696 			"/>
			<polygon fill="#6C6C96" points="498.068,469.178 512.114,459.309 530.038,469.675 516.075,479.582 			"/>
			<polygon fill="#6C6C96" points="519.102,481.233 533.147,471.363 551.071,481.731 537.108,491.638 			"/>
			<polygon fill="#6C6C96" points="538.862,492.543 552.91,482.673 570.834,493.04 556.87,502.947 			"/>
			<polygon fill="#6C6C96" points="535.446,518.171 549.145,510.097 567.068,520.465 553.37,528.547 			"/>
			<polygon fill="#6C6C96" points="514.379,505.682 528.077,497.607 546.001,507.977 532.303,516.058 			"/>
			<polygon fill="#6C6C96" points="477.179,503.674 490.877,495.6 508.801,505.968 495.103,514.05 			"/>
			<polygon fill="#6C6C96" points="497.873,515.611 511.571,507.537 529.495,517.905 515.797,525.989 			"/>
			<polygon fill="#6C6C96" points="480.471,525.553 494.167,517.479 512.093,527.848 498.394,535.93 			"/>
			<polygon fill="#6C6C96" points="459.873,513.779 473.571,505.705 491.495,516.073 477.797,524.155 			"/>
			<polygon fill="#6C6C96" points="442.613,523.909 456.311,515.835 474.235,526.203 460.537,534.285 			"/>
			<polygon fill="#6C6C96" points="463.192,535.622 476.89,527.549 494.813,537.916 481.116,545.999 			"/>
			<polygon fill="#6C6C96" points="484.584,548.009 498.28,539.937 516.206,550.304 502.507,558.387 			"/>
			<polygon fill="#6C6C96" points="467.316,558.095 481.013,550.021 498.937,560.389 485.238,568.473 			"/>
			<polygon fill="#6C6C96" points="450.081,568.366 463.779,560.292 481.703,570.66 468.005,578.742 			"/>
			<polygon fill="#6C6C96" points="407.973,544.004 421.671,535.93 439.595,546.298 425.896,554.38 			"/>
			<polygon fill="#6C6C96" points="446.361,545.693 460.058,537.619 477.981,547.987 464.283,556.069 			"/>
			<polygon fill="#6C6C96" points="429.199,555.697 442.896,547.625 460.819,557.993 447.122,566.075 			"/>
			<polygon fill="#6C6C96" points="425.242,533.699 438.938,525.625 456.862,535.993 443.164,544.075 			"/>
			<polygon fill="#6C6C96" points="342.505,486.068 356.555,478.099 415.6,512.132 401.902,520.215 			"/>
			<polygon fill="#6C6C96" points="380.228,487.969 394.186,479.871 432.99,502.238 419.292,510.32 			"/>
			<polygon fill="#6C6C96" points="418.283,489.829 432.387,481.766 450.576,492.25 436.879,500.331 			"/>
			<polygon fill="#6C6C96" points="397.607,478.041 411.713,469.978 429.902,480.462 416.204,488.544 			"/>
			<polygon fill="#6C6C96" points="376.619,466.05 390.725,457.987 408.914,468.471 395.217,476.555 			"/>
			<polygon fill="#6C6C96" points="359.45,475.989 373.556,467.926 391.743,478.408 378.045,486.491 			"/>
			<polygon fill="#6C6C96" points="339.127,463.931 353.233,455.868 371.422,466.352 357.723,474.434 			"/>
			<polygon fill="#6C6C96" points="297.657,440.471 311.763,432.407 329.952,442.892 316.253,450.974 			"/>
			<polygon fill="#6C6C96" points="276.799,428.417 290.904,420.354 309.094,430.838 295.396,438.92 			"/>
			<polygon fill="#6C6C96" points="252.997,394.167 267.103,386.104 285.291,396.588 271.593,404.67 			"/>
			<polygon fill="#6C6C96" points="273.333,406.364 287.439,398.301 305.628,408.785 291.931,416.868 			"/>
			<polygon fill="#6C6C96" points="294.08,418.312 308.187,410.248 326.376,420.732 312.676,428.814 			"/>
			<polygon fill="#6C6C96" points="315.011,430.387 329.117,422.323 347.306,432.808 333.608,440.891 			"/>
			<polygon fill="#6C6C96" points="335.521,442.503 349.627,434.439 367.816,444.923 354.118,453.005 			"/>
			<polygon fill="#6C6C96" points="356.097,454.167 370.202,446.105 388.392,456.588 374.694,464.671 			"/>
			<polygon fill="#6C6C96" points="394.31,455.802 408.415,447.739 426.604,458.223 412.906,466.307 			"/>
			<polygon fill="#6C6C96" points="373.245,443.872 387.351,435.809 405.539,446.293 391.842,454.375 			"/>
			<polygon fill="#6C6C96" points="352.758,431.847 366.863,423.783 385.053,434.268 371.355,442.351 			"/>
			<polygon fill="#6C6C96" points="331.589,420.078 345.694,412.015 363.882,422.498 350.185,430.582 			"/>
			<polygon fill="#6C6C96" points="310.247,407.626 324.352,399.563 342.543,410.047 328.843,418.129 			"/>
			<polygon fill="#6C6C96" points="289.933,396.185 304.039,388.122 322.228,398.605 308.528,406.688 			"/>
			<polygon fill="#6C6C96" points="269.926,384.309 284.031,376.245 302.221,386.729 288.523,394.811 			"/>
			<polygon fill="#6C6C96" points="286.528,374.363 300.634,366.301 318.823,376.785 305.125,384.867 			"/>
			<polygon fill="#6C6C96" points="306.579,386.179 320.685,378.116 338.873,388.6 325.177,396.682 			"/>
			<polygon fill="#6C6C96" points="328.28,398.297 342.385,390.233 360.574,400.717 346.876,408.799 			"/>
			<polygon fill="#6C6C96" points="348.855,410.684 362.961,402.621 381.15,413.104 367.452,421.187 			"/>
			<polygon fill="#6C6C96" points="369.425,422.646 383.53,414.584 401.72,425.067 388.021,433.149 			"/>
			<polygon fill="#6C6C96" points="390.359,434.356 404.465,426.293 422.654,436.777 408.957,444.859 			"/>
			<polygon fill="#6C6C96" points="410.634,446.268 424.739,438.205 442.929,448.688 429.23,456.771 			"/>
			<polygon fill="#6C6C96" points="415.247,468.23 429.353,460.167 447.54,470.651 433.843,478.732 			"/>
			<polygon fill="#6C6C96" points="431.404,458.293 445.51,450.229 463.698,460.714 450,468.796 			"/>
			<polygon fill="#6C6C96" points="436.17,480.298 450.275,472.234 468.463,482.719 454.765,490.801 			"/>
			<polygon fill="#6C6C96" points="452.361,470.646 466.469,462.583 484.656,473.065 470.958,481.148 			"/>
			<polygon fill="#6C6C96" points="236.162,404.188 249.586,396.041 287.701,418.747 274.003,426.829 			"/>
			<polygon fill="#6C6C96" points="318.378,452.275 332.484,444.213 350.673,454.696 336.974,462.778 			"/>
			<polygon fill="#6C6C96" points="366.626,520.123 380.731,512.06 398.921,522.544 385.223,530.626 			"/>
			<polygon fill="#6C6C96" points="345.827,507.766 359.933,499.702 378.122,510.186 364.424,518.268 			"/>
			<polygon fill="#6C6C96" points="221.796,436.48 235.901,428.417 254.091,438.901 240.393,446.983 			"/>
			<polygon fill="#6C6C96" points="200.432,424.606 214.537,416.545 232.727,427.027 219.028,435.111 			"/>
			<polygon fill="#6C6C96" points="218.714,414.624 232.819,406.562 251.009,417.045 237.311,425.127 			"/>
			<polygon fill="#6C6C96" points="239.145,426.191 253.25,418.129 271.438,428.612 257.741,436.694 			"/>
			<polygon fill="#6C6C96" points="259.606,438.256 273.711,430.193 291.9,440.677 278.202,448.759 			"/>
			<polygon fill="#6C6C96" points="280.876,450.714 294.98,442.65 313.17,453.135 299.472,461.217 			"/>
			<polygon fill="#6C6C96" points="301.518,462.062 315.625,453.998 333.813,464.482 320.115,472.564 			"/>
			<polygon fill="#6C6C96" points="321.92,474.579 336.026,466.516 354.215,476.999 340.516,485.081 			"/>
			<polygon fill="#6C6C96" points="243.045,448.765 257.054,440.87 357.014,498.563 343.772,506.377 			"/>
			<polygon fill="#6C6C96" points="501.735,538.193 515.432,530.12 533.355,540.488 519.657,548.571 			"/>
			<polygon fill="#6C6C96" points="518.564,527.6 532.262,519.525 550.186,529.894 536.488,537.976 			"/>
			<polygon fill="#6C6C96" points="494.084,494.081 507.78,486.008 525.704,496.376 512.007,504.459 			"/>
			<polygon fill="#6C6C96" points="267.132,512.06 304.337,490.801 357.014,521.343 322.065,542.991 			"/>
		</g>
		<linearGradient id="SVGID_5_" gradientUnits="userSpaceOnUse" x1="612.9307" y1="393.7168" x2="366.5582" y2="251.4736">
			<stop  offset="0.0284" style="stop-color:#58CED8"/>
			<stop  offset="1" style="stop-color:#1D7CD8"/>
		</linearGradient>
		<polygon fill="url(#SVGID_5_)" points="615.457,301.431 615.457,485.779 333.813,326.312 331.964,137.88 		"/>
		<polygon opacity="0.47" fill="#D9E2E8" points="331.964,137.88 331.637,154.122 615.457,318.622 615.457,301.431 		"/>
		<polygon opacity="0.5" fill="#417ED6" points="347.893,177.497 347.872,318.356 430.913,367.835 430.913,225.825 		"/>
		<polygon opacity="0.5" fill="#417ED6" points="442.929,229.443 442.929,294.761 493.26,324.397 493.26,258.037 		"/>
		<polygon opacity="0.5" fill="#417ED6" points="442.929,304.588 442.929,369.904 493.26,399.541 493.26,333.182 		"/>
		
			<ellipse transform="matrix(0.9229 -0.385 0.385 0.9229 -45.2602 197.8432)" fill="#86A2B7" cx="471.39" cy="211.938" rx="1.968" ry="2.905"/>
		<g>
			
				<text transform="matrix(1.0056 0.5953 0.0547 0.9985 499.0615 308.8096)" fill="#FFFFFF" font-family="'Gilroy-Light'" font-size="14.1607" letter-spacing="0.856">$ 200</text>
			<path opacity="0.6" fill="#FFFFFF" d="M498.473,272.342v0.171c0,1.587,0.847,3.052,2.221,3.844l47.62,27.435
				c2.956,1.704,6.648-0.431,6.648-3.842l0,0c0-1.582-0.842-3.044-2.21-3.837l-47.62-27.607
				C502.176,266.792,498.473,268.925,498.473,272.342z"/>
			<path fill="#64E1C0" d="M498.473,325.462L498.473,325.462c0.019,1.76,0.954,3.383,2.468,4.279l29.677,17.615
				c3.338,1.981,7.568-0.398,7.612-4.279l0.002-0.142c0.02-1.804-0.928-3.483-2.483-4.398l-29.679-17.473
				C502.688,319.075,498.431,321.54,498.473,325.462z"/>
			<path opacity="0.6" fill="#FFFFFF" d="M498.473,282.834L498.473,282.834c0,0.679,0.361,1.309,0.948,1.652l68.241,39.836
				c1.274,0.745,2.876-0.175,2.876-1.65v-0.292c0-0.681-0.363-1.312-0.954-1.654l-68.24-39.547
				C500.069,280.439,498.473,281.359,498.473,282.834z"/>
			<path opacity="0.6" fill="#FFFFFF" d="M498.473,291.122L498.473,291.122c0,0.679,0.361,1.309,0.948,1.65l46.132,26.932
				c1.34,0.782,3.005-0.273,2.868-1.82l-0.017-0.206c-0.055-0.622-0.408-1.176-0.946-1.488l-46.114-26.723
				C500.069,288.728,498.473,289.647,498.473,291.122z"/>
		</g>
		<g>
			
				<text transform="matrix(1.0056 0.5953 0.0547 0.9985 497.6387 379.1616)" fill="#FFFFFF" font-family="'Gilroy-Light'" font-size="14.1607" letter-spacing="0.856">$ 200</text>
			<path opacity="0.6" fill="#FFFFFF" d="M497.049,342.694v0.172c0,1.587,0.848,3.052,2.222,3.842l47.62,27.437
				c2.957,1.704,6.648-0.431,6.648-3.842l0,0c0-1.584-0.842-3.045-2.21-3.839l-47.62-27.606
				C500.751,337.144,497.049,339.277,497.049,342.694z"/>
			<path fill="#64E1C0" d="M497.05,395.814L497.05,395.814c0.019,1.759,0.954,3.382,2.468,4.279l29.676,17.613
				c3.339,1.981,7.569-0.396,7.613-4.277l0.002-0.143c0.019-1.805-0.928-3.482-2.483-4.399l-29.679-17.471
				C501.266,389.428,497.008,391.892,497.05,395.814z"/>
			<path opacity="0.6" fill="#FFFFFF" d="M497.049,353.185L497.049,353.185c0,0.679,0.362,1.311,0.949,1.652l68.241,39.838
				c1.274,0.745,2.876-0.175,2.876-1.65v-0.292c0-0.683-0.363-1.313-0.954-1.654l-68.24-39.547
				C498.646,350.791,497.049,351.712,497.049,353.185z"/>
			<path opacity="0.6" fill="#FFFFFF" d="M497.049,361.473L497.049,361.473c0,0.681,0.362,1.309,0.949,1.652l46.132,26.932
				c1.34,0.782,3.005-0.273,2.869-1.819l-0.018-0.208c-0.055-0.619-0.407-1.174-0.946-1.486l-46.114-26.724
				C498.646,359.08,497.049,359.999,497.049,361.473z"/>
		</g>
		<g>
			<ellipse fill="#D8654A" cx="342.52" cy="152.333" rx="2.688" ry="3.491"/>
			<ellipse fill="#D6C24C" cx="350.095" cy="156.285" rx="2.689" ry="3.49"/>
			<ellipse fill="#7AD34C" cx="357.616" cy="160.622" rx="2.689" ry="3.49"/>
		</g>
		<g>
			<path opacity="0.78" fill="#417ED6" d="M404.055,275.967l0.011-4.162c0,0,6.094-5.106,3.292-38.087l-3.197-1.89l0,0
				l-21.734-13.856l-6.078-1.615c0,0-5.179,23.358,3.099,42.904l-0.013,4.482c0,0-8.33,3.501-6.154,30.716
				c2.175,27.218,2.175,27.218,2.175,27.218l31.137,17.443C406.458,337.839,416.496,294.244,404.055,275.967z"/>
			<g>
				<path fill="#5D5C9F" d="M393.344,231.263l-5.492-3.25l-10.391,15.183l-9.317-27.85L362,213.713c0,0-5.233,23.609,3.131,43.366
					l24.884,12.679C390.016,269.759,396.177,264.596,393.344,231.263z"/>
				<polygon fill="#434377" points="390.016,269.759 390.007,273.966 365.121,261.61 365.131,257.08 				"/>
				<path fill="#5D5C9F" d="M392.568,337.797c-0.133-1.293,10.012-45.358-2.562-63.831l-24.886-12.356c0,0-8.421,3.539-6.224,31.047
					c2.199,27.508,2.199,27.508,2.199,27.508L392.568,337.797z"/>
				<g>
					<path fill="#434377" d="M368.144,215.346c0.091,0.001,0.172,1.021,0.286,2.864c0.117,1.842,0.261,4.508,0.513,7.793
						c0.253,3.286,0.597,7.195,1.204,11.497c0.64,4.276,1.411,9.052,3.273,13.606c0.464,1.121,1.068,2.2,1.734,3.067
						c0.344,0.413,0.744,0.709,1.146,0.823c0.4,0.102,0.836,0.033,1.276-0.2c0.879-0.47,1.646-1.333,2.302-2.199
						c0.66-0.882,1.238-1.816,1.767-2.75c2.088-3.767,3.529-7.432,4.727-10.492c1.18-3.073,2.059-5.594,2.679-7.331
						c0.618-1.74,0.975-2.699,1.063-2.674c0.087,0.025-0.105,1.034-0.575,2.824c-0.472,1.79-1.218,4.363-2.296,7.499
						c-1.096,3.125-2.45,6.847-4.541,10.757c-0.529,0.975-1.118,1.956-1.816,2.914c-0.712,0.942-1.499,1.915-2.719,2.593
						c-0.599,0.331-1.422,0.517-2.196,0.311c-0.77-0.212-1.365-0.708-1.809-1.229c-0.834-1.071-1.439-2.196-1.945-3.398
						c-1.959-4.801-2.679-9.62-3.266-13.962c-0.548-4.354-0.798-8.294-0.934-11.602c-0.133-3.309-0.138-5.987-0.097-7.838
						C367.963,216.369,368.054,215.346,368.144,215.346z"/>
				</g>
				<g opacity="0.57">
					<path fill="#434377" d="M382.063,257.301c0.062,0.05-0.045,0.347-0.42,0.756c-0.37,0.408-1.042,0.898-1.999,1.213
						c-0.951,0.308-2.18,0.422-3.487,0.125c-1.313-0.295-2.614-1.019-3.742-2.002c-1.126-0.987-1.986-2.115-2.661-3.174
						c-0.674-1.059-1.188-2.049-1.606-2.876c-0.823-1.662-1.315-2.691-1.167-2.794c0.148-0.104,0.934,0.774,1.966,2.325
						c1.056,1.521,2.318,3.756,4.331,5.532c1.001,0.873,2.106,1.517,3.177,1.818c1.074,0.306,2.119,0.306,2.958,0.148
						C381.119,258.052,381.914,257.151,382.063,257.301z"/>
				</g>
				<g opacity="0.57">
					<path fill="#434377" d="M375.49,303.394c-0.359-0.039,0.015-7.988,0.834-17.758c0.82-9.771,1.779-17.669,2.14-17.647
						c0.362,0.021-0.011,7.971-0.834,17.758C376.809,295.53,375.852,303.433,375.49,303.394z"/>
				</g>
				<g opacity="0.57">
					<path fill="#434377" d="M369.667,291.482c-0.344-0.092,0.892-5.81,3.122-12.659c1.111-3.425,2.253-6.479,3.164-8.658
						c0.226-0.543,0.44-1.034,0.632-1.462c0.19-0.434,0.4-0.801,0.394-0.978c0.002-0.045-0.003-0.075-0.017-0.106
						c-0.01-0.022,0.021-0.019-0.002-0.035c-0.04-0.021-0.131,0.006-0.172,0.031c-0.095,0.03-0.06,0.1-0.075,0.15
						c-0.011,0.016-0.045,0.031-0.103-0.006c-0.067-0.033-0.102-0.19-0.034-0.3c0.061-0.107,0.157-0.228,0.373-0.265
						c0.103-0.022,0.273,0.038,0.354,0.131c0.083,0.078,0.146,0.191,0.178,0.31c0.058,0.237,0.021,0.467-0.032,0.684
						c-0.057,0.2-0.114,0.412-0.176,0.635c-0.137,0.464-0.285,0.973-0.447,1.524c-0.686,2.252-1.684,5.339-2.79,8.75
						C371.817,286.042,370.022,291.58,369.667,291.482z"/>
				</g>
				<g opacity="0.57">
					<path fill="#434377" d="M383.926,284.933c-0.33,0.102-1.766-3.845-2.353-8.958c-0.607-5.115-0.12-9.283,0.225-9.261
						c0.378,0.012,0.483,4.113,1.078,9.108C383.447,280.817,384.291,284.833,383.926,284.933z"/>
				</g>
			</g>
		</g>
		<path opacity="0.78" fill="#417ED6" d="M475.057,258.449c0,0,10.603,2.367,10.465,17.775l-5.81-2.077l-0.513,3.058
			c-0.74,4.425-0.89,8.927-0.444,13.391l1.535,15.358l-25.75-14.733l1.666-5.01c1.809-5.438,2.682-11.144,2.579-16.873l-0.114-6.411
			l-4.819-2.825c0,0,2.975-10.514,9.478-7.645l5.275,2.427C468.604,254.884,468.572,273.901,475.057,258.449z"/>
		<g>
			<g>
				<g>
					<path fill="#EA8B90" d="M466.738,258.449c0,0,10.603,2.367,10.466,17.775l-5.81-2.077l-0.513,3.058
						c-0.74,4.425-0.89,8.927-0.445,13.391l1.535,15.358l-25.749-14.733l1.666-5.01c1.809-5.438,2.682-11.144,2.578-16.873
						l-0.113-6.411l-4.82-2.825c0,0,2.976-10.514,9.479-7.645l5.275,2.427C460.287,254.884,460.256,273.901,466.738,258.449z"/>
				</g>
			</g>
			<g>
				<path fill="#C1636C" d="M461.312,270.63c0.782-1.081,2.427-1.417,3.57-0.731c1.144,0.688,1.619,2.296,1.032,3.495
					c-0.29,0.595-0.79,1.062-1.301,1.484c-1.787,1.478-3.862,2.605-6.073,3.3c-0.078,0.025-0.171,0.045-0.233-0.008
					c-0.037-0.03-0.051-0.078-0.063-0.125c-0.439-1.542-0.859-3.089-1.262-4.64c-0.213-0.817-0.421-1.649-0.409-2.494
					s0.271-1.719,0.874-2.312c0.604-0.592,1.522-1.001,2.257-0.583C460.679,268.572,461.285,269.509,461.312,270.63"/>
			</g>
		</g>
		<g opacity="0.86">
			<path fill="#417ED6" d="M486.42,364.332c-0.051-0.039-0.109-0.063-0.164-0.095c-0.604-3.395-2.705-4.679-2.705-4.679
				c-0.245-0.009-0.481-0.025-0.714-0.044l-8.356-6.478c-0.266-0.768-0.432-1.287-0.695-1.287c-0.225,0-0.777-0.141-1.561-0.372
				c0.639-0.513,1.242-1.07,1.762-1.704c0.58-0.708,1.097-1.554,1.042-2.466c-0.005-0.074-0.016-0.153-0.067-0.206
				c-0.092-0.097-0.251-0.058-0.373-0.003c-0.901,0.397-1.584,1.19-2.027,2.069c-0.348,0.69-0.563,1.437-0.738,2.191
				c-0.038-0.011-0.08-0.023-0.117-0.034c0.285-1.691,0.245-3.436-0.161-5.102c-0.396,0.347-0.576,0.877-0.683,1.395
				c-0.238,1.154-0.173,2.363,0.153,3.495c-0.618-0.19-1.323-0.409-2.091-0.65l0.165-1.246c-0.065,0.413-0.12,0.828-0.183,1.243
				c-0.889-0.278-1.86-0.575-2.9-0.884l0.047-1.112c-0.035,0.366-0.05,0.734-0.076,1.103c-0.779-0.231-1.592-0.467-2.429-0.7
				l0.031-0.965c-0.039,0.315-0.067,0.631-0.095,0.946c-1.551-0.431-3.182-0.853-4.823-1.226c0-0.002,0-0.002,0-0.002l-0.001,0.002
				c-0.147-0.033-0.294-0.069-0.44-0.102c-5.729-1.268-7.851,2.182-8.812,4.132l-0.306-0.161c-0.166,0.108-0.008,0.336,0.163,0.455
				c-0.193,0.403-0.334,0.718-0.446,0.859v2.005l35.973,19.472l0.672-2.357l0.285-1.313l0,0l0,0l0.511-2.352
				c0.221-1.465,0.188-2.699,0.021-3.75L486.42,364.332z"/>
		</g>
		<g>
			<path fill="#62DDBB" d="M442.642,354.232c0.637-0.796,2.07-6.906,9.399-5.285s14.563,4.329,15.567,4.329
				c1.003,0,0.578,7.488,9.766,7.809c0,0,3.665,2.23,2.708,8.602l-0.797,3.664L442.642,354.232z"/>
			<linearGradient id="SVGID_6_" gradientUnits="userSpaceOnUse" x1="444.123" y1="367.7617" x2="466.5529" y2="363.9696">
				<stop  offset="0.0284" style="stop-color:#DEE8F2"/>
				<stop  offset="1" style="stop-color:#C6CFD8"/>
			</linearGradient>
			<polygon fill="url(#SVGID_6_)" points="442.642,354.232 442.642,356.236 478.614,375.709 479.285,373.351 			"/>
			<g>
				<path fill="#E8E8E8" d="M457.228,354.476c-0.237,0.019-0.517-1.143-0.465-2.592c0.048-1.451,0.404-2.589,0.64-2.555
					c0.242,0.033,0.28,1.186,0.234,2.584C457.587,353.311,457.472,354.459,457.228,354.476z"/>
			</g>
			<g>
				<path fill="#E8E8E8" d="M459.654,355.169c-0.24,0.006-0.462-1.187-0.399-2.661c0.061-1.474,0.383-2.646,0.622-2.617
					c0.241,0.025,0.311,1.21,0.251,2.655C460.067,353.989,459.896,355.163,459.654,355.169z"/>
			</g>
			<g>
				<path fill="#E8E8E8" d="M462.177,356.18c-0.24-0.023-0.271-1.289-0.065-2.825c0.204-1.537,0.563-2.752,0.801-2.711
					c0.237,0.039,0.268,1.304,0.064,2.827C462.775,354.99,462.416,356.203,462.177,356.18z"/>
			</g>
			<g>
				<path fill="#E8E8E8" d="M465.507,353.408c-0.057-0.012-0.051-0.362,0.051-0.988c0.112-0.617,0.286-1.549,0.903-2.571
					c0.311-0.501,0.743-1.02,1.354-1.417c0.158-0.103,0.305-0.184,0.502-0.271c0.115-0.041,0.249-0.102,0.488-0.047
					c0.269,0.053,0.427,0.382,0.422,0.509c0.049,0.45-0.019,0.848-0.151,1.249c-0.278,0.792-0.797,1.456-1.342,2.071
					c-0.556,0.622-1.199,1.208-1.919,1.723c-0.075,0.052-0.101,0.077-0.218,0.15c-0.061,0.033-0.144,0.083-0.29,0.097
					c-0.146,0.021-0.344-0.055-0.438-0.154c-0.186-0.206-0.17-0.284-0.208-0.35l-0.084-0.218c-0.109-0.295-0.195-0.594-0.264-0.892
					c-0.14-0.595-0.202-1.195-0.197-1.774c0.003-0.581,0.075-1.14,0.2-1.669c0.127-0.528,0.349-1.093,0.806-1.484l0.474-0.403
					l0.131,0.594c0.389,1.771,0.315,3.289,0.153,4.31c-0.167,1.028-0.396,1.577-0.466,1.559c-0.084-0.019,0.002-0.595,0.038-1.599
					c0.032-1-0.007-2.442-0.445-4.093l0.603,0.192c-0.514,0.481-0.646,1.587-0.652,2.593c0.004,0.515,0.07,1.049,0.198,1.577
					c0.063,0.264,0.142,0.528,0.238,0.787l0.077,0.194l0.034,0.087l0.003,0.004l-0.115,0.064c-0.06,0.037-0.092,0.065-0.111,0.086
					c-0.039,0.039-0.019,0.045-0.023,0.004c0.008-0.025-0.055-0.178-0.104-0.264l0.151-0.107c0.669-0.478,1.269-1.017,1.795-1.587
					c0.527-0.575,0.985-1.159,1.217-1.766c0.113-0.293,0.164-0.623,0.148-0.873v-0.006l0.084-0.022
					c0.05-0.016,0.078-0.031,0.095-0.041c0.012-0.003,0.018-0.028-0.001,0.021c-0.007,0.02-0.011,0.055-0.011,0.094l0.001,0.067
					c0,0.011-0.001,0.005-0.001,0.005c-0.008,0-0.027,0.004-0.049,0.011c-0.114,0.047-0.267,0.119-0.388,0.191
					c-0.51,0.296-0.913,0.718-1.221,1.143c-0.61,0.862-0.879,1.732-1.087,2.311C465.688,353.092,465.567,353.422,465.507,353.408z"
					/>
			</g>
			<g>
				<path fill="#E8E8E8" d="M479.571,372.039c-0.026,0.053-0.575-0.15-1.541-0.562c-0.969-0.416-2.357-1.04-4.063-1.831
					c-3.413-1.58-8.103-3.82-13.224-6.412c-5.124-2.596-9.696-5.073-12.967-6.934c-1.636-0.931-2.947-1.702-3.842-2.258
					c-0.448-0.297-0.79-0.453-1.023-0.7c-0.095-0.12-0.139-0.259-0.094-0.353c0.049-0.084,0.104-0.078,0.106-0.07
					c0.01,0.023-0.097,0.131,0.115,0.302c0.176,0.131,0.604,0.287,1.06,0.524c0.944,0.462,2.302,1.151,3.972,2.012
					c3.397,1.743,7.991,4.095,13.068,6.696c5.088,2.58,9.691,4.914,13.1,6.641c1.671,0.859,3.017,1.568,3.939,2.077
					C479.1,371.677,479.598,371.984,479.571,372.039z"/>
			</g>
			<g>
				<path fill="#E8E8E8" d="M480.241,365.859c-0.071,0.074-0.604-0.195-1.591-0.164c-0.964,0.003-2.285,0.372-3.535,1.2
					c-0.629,0.408-1.192,0.868-1.702,1.302c-0.246,0.214-0.487,0.422-0.723,0.626l-0.329,0.286l-0.156,0.136
					c-0.047,0.042-0.005,0.005-0.01-0.004c-0.008,0.016-0.016,0.019-0.026,0.047c-0.169,0.416-0.286,0.859-0.409,1.121
					c-0.109,0.272-0.271,0.431-0.318,0.376c-0.035-0.045-0.027-0.164-0.013-0.458c0.026-0.293,0.026-0.681,0.159-1.252
					c0.008-0.033,0.031-0.086,0.048-0.131c0.03-0.065,0.109-0.156,0.116-0.159l0.138-0.156l0.296-0.325
					c0.21-0.224,0.437-0.459,0.685-0.701c0.496-0.483,1.081-0.993,1.771-1.441c1.378-0.917,2.952-1.253,4.047-1.084
					c0.547,0.08,0.965,0.229,1.236,0.4C480.193,365.65,480.28,365.817,480.241,365.859z"/>
			</g>
			<g>
				<path fill="#E8E8E8" d="M452.483,349.048c0.112-0.019,0.325,0.531,0.418,1.471c0.091,0.936,0.005,2.252-0.312,3.633
					c-0.153,0.69-0.335,1.337-0.51,1.915c-0.18,0.575-0.332,1.103-0.548,1.549c-0.208,0.443-0.487,0.771-0.725,0.928
					c-0.237,0.161-0.401,0.176-0.43,0.128c-0.06-0.111,0.365-0.443,0.578-1.277c0.243-1.071,0.5-2.196,0.78-3.433
					c0.307-1.337,0.479-2.546,0.547-3.439C452.349,349.635,452.356,349.065,452.483,349.048z"/>
			</g>
			<g>
				<path fill="#E8E8E8" d="M477.773,361.905c0.038,0.094-0.801,0.551-2.313,0.581c-0.751,0.016-1.657-0.133-2.583-0.45
					c-0.923-0.327-1.9-0.709-2.891-1.32c-0.992-0.6-1.771-1.493-2.229-2.383c-0.469-0.893-0.695-1.762-0.82-2.486
					c-0.239-1.458-0.139-2.363-0.034-2.369c0.134-0.014,0.258,0.878,0.636,2.23c0.379,1.329,1.115,3.201,2.914,4.271
					c0.878,0.543,1.846,0.956,2.697,1.299c0.857,0.337,1.648,0.528,2.336,0.59C476.863,361.998,477.741,361.772,477.773,361.905z"/>
			</g>
			<g>
				<path fill="#E8E8E8" d="M473.235,364.049c-0.065,0.231-2.32-0.203-5.035-0.971c-0.679-0.194-1.322-0.387-1.905-0.575
					c-0.279-0.094-0.553-0.186-0.824-0.275c-0.128-0.05-0.239-0.075-0.42-0.163c-0.185-0.081-0.354-0.322-0.378-0.476
					c-0.07-1.045,0.053-1.573,0.157-1.585c0.127-0.016,0.256,0.61,0.43,1.393c0.042,0.069,0.029,0.038,0.08,0.06l0.329,0.073
					c0.278,0.064,0.559,0.13,0.847,0.198c0.593,0.144,1.244,0.316,1.922,0.509C471.153,363.006,473.301,363.817,473.235,364.049z"/>
			</g>
		</g>
		<polygon opacity="0.29" fill="#417ED6" points="599.163,476.555 599.783,495.6 577.447,508.985 530.189,479.871 551.363,467.27 
			556.188,452.221 		"/>
		<g>
			<polygon fill="#F2C15B" points="537.713,424.435 537.383,461.887 574.992,484.009 575.322,442.687 			"/>
			<path fill="#F28555" d="M612.047,425.08c-8.339,4.357-37.055,19.107-37.055,19.107v39.821l37.055-22.122V425.08z"/>
			<polygon fill="#EFA55B" points="574.161,440.316 574.161,455.525 614.537,432.021 614.537,417.916 			"/>
			<polygon fill="#F2C15B" points="535.446,417.916 535.446,431.744 574.161,455.525 574.161,440.316 			"/>
			<polygon fill="#F2C15B" points="574.161,394.498 535.446,418.004 574.161,440.403 614.537,418.004 			"/>
			<polygon opacity="0.28" fill="#417ED6" points="574.992,455.043 612.047,433.47 612.047,437.239 574.992,459.328 			"/>
			<polygon fill="#9566BF" points="556.817,473.318 558.217,431.361 574.825,420.765 591.993,431.731 592.986,473.266 
				601.023,468.468 601.023,426.723 573.845,410.758 550.576,425.865 548.931,468.679 			"/>
			<polygon opacity="0.28" fill="#417ED6" points="537.636,433.089 574.161,455.525 574.992,459.328 537.383,437.599 			"/>
			<g>
				<path fill="#A876DD" d="M568.291,416.706c-0.69,0.448-14.945,0.975-15.731,9.388c-0.785,8.411,4.96,6.047,0.981,9.987
					c-3.979,3.938-10.792,8.828-9.025,18.052l9.222,5.494c0,0-4.514-6.869,0.195-13.344c4.71-6.475,7.412-12.183,5.761-19.545
					c0,0-1.442-3.412,3.658-4.001c5.102-0.589,11.971-3.715,11.971-3.715L568.291,416.706z"/>
				<path fill="#6E4D91" d="M545.662,409.766l-1.178,7.328c0,0,6.623,5.063,12.258,4.316c5.633-0.747,18.322-2.551,18.322-2.551
					s-9.388-12.166-10.173-12.166C564.107,406.693,545.662,409.766,545.662,409.766z"/>
				<path fill="#9566BF" d="M575.064,418.859c0,0-7.091-20.015-16.774-18.052c-9.685,1.962-13.806,6.475-13.806,6.475v9.812
					c0,0,11.418-7.006,18.052-3.925C569.17,416.252,575.064,418.859,575.064,418.859z"/>
			</g>
			<g>
				<path fill="#A876DD" d="M581.192,416.706c0.69,0.448,14.947,0.975,15.731,9.388c0.785,8.411-4.96,6.047-0.98,9.987
					c3.978,3.938,10.791,8.828,9.024,18.052l-9.222,5.494c0,0,4.514-6.869-0.195-13.344c-4.71-6.475-7.412-12.183-5.76-19.545
					c0,0,1.441-3.412-3.659-4.001c-5.102-0.589-11.971-3.715-11.971-3.715L581.192,416.706z"/>
				<path fill="#6E4D91" d="M603.822,409.766l1.177,7.328c0,0-6.623,5.063-12.258,4.316c-5.633-0.747-18.322-2.551-18.322-2.551
					s9.388-12.166,10.174-12.166C585.376,406.693,603.822,409.766,603.822,409.766z"/>
				<path fill="#9566BF" d="M574.419,418.859c0,0,7.092-20.015,16.774-18.052c9.685,1.962,13.806,6.475,13.806,6.475v9.812
					c0,0-11.417-7.006-18.052-3.925C580.313,416.252,574.419,418.859,574.419,418.859z"/>
			</g>
		</g>
		<polygon opacity="0.2" fill="#417ED6" points="358.532,356.497 351.669,360.005 383.926,379.115 390.016,374.939 		"/>
		<polygon opacity="0.2" fill="#417ED6" points="444.829,404.921 437.967,408.429 470.223,427.54 476.313,423.363 		"/>
	</g>
	<g>
		<ellipse fill="#001B5E" cx="199.979" cy="545.993" rx="35.302" ry="9.452"/>
		<g>
			<g>
				<path fill="#5A4FD6" d="M210.414,548.86c0,0,22.567-18.541,24.288-12.669c1.721,5.872-16.231,14.548-16.231,14.548
					L210.414,548.86z"/>
				<g>
					<path fill="#D7D7FF" d="M234.817,537.199c0.048-0.002,0.104,0.347-0.183,0.861c-0.274,0.523-0.918,1.064-1.66,1.659
						c-1.498,1.218-3.604,2.854-5.961,4.618c-2.369,1.757-4.5,3.337-6.143,4.399c-1.652,1.059-2.846,1.399-2.883,1.291
						c-0.048-0.118,1.015-0.642,2.532-1.801c1.513-1.163,3.608-2.837,5.97-4.59c2.357-1.763,4.522-3.321,6.114-4.413
						c0.81-0.547,1.432-0.957,1.75-1.355C234.684,537.483,234.748,537.185,234.817,537.199z"/>
				</g>
				<g>
					<path fill="#D7D7FF" d="M225.195,544.288c-0.203,0.151-1.102-0.818-2.116-2.017c-0.519-0.598-0.962-1.137-1.317-1.438
						c-0.351-0.317-0.642-0.438-0.629-0.565c0.002-0.112,0.402-0.211,0.954,0.039c0.555,0.244,1.122,0.779,1.655,1.395
						C224.806,542.962,225.379,544.151,225.195,544.288z"/>
				</g>
				<g>
					<path fill="#D7D7FF" d="M225.701,543.137c-0.124,0.011-0.248-0.229-0.486-0.556c-0.231-0.325-0.605-0.778-1.017-1.279
						c-0.818-0.995-1.57-1.76-1.428-1.96c0.13-0.198,1.195,0.306,2.101,1.402c0.444,0.54,0.775,1.097,0.907,1.58
						C225.911,542.807,225.817,543.129,225.701,543.137z"/>
				</g>
				<g>
					<path fill="#D7D7FF" d="M227.113,542.206c-0.24,0.036-0.629-0.88-1.464-1.818c-0.82-0.951-1.553-1.771-1.381-1.961
						c0.146-0.169,1.13,0.339,2.051,1.4c0.452,0.534,0.75,1.129,0.854,1.59C227.282,541.88,227.226,542.181,227.113,542.206z"/>
				</g>
				<g>
					<path fill="#D7D7FF" d="M220.438,544.697c-0.047,0.027-0.25-0.179-0.473-0.644c-0.214-0.463-0.445-1.204-0.383-2.149
						c0.014-0.235,0.048-0.482,0.106-0.733c0.027-0.129,0.064-0.255,0.104-0.385c0.041-0.122,0.086-0.298,0.261-0.478
						c0.184-0.175,0.509-0.314,0.853-0.064c0.289,0.287,0.22,0.537,0.249,0.646c0.021,0.276,0.042,0.561,0.063,0.852
						c0.039,0.587,0.08,1.196,0.123,1.827c0.02,0.315,0.042,0.656,0.02,1.021c-0.006,0.092-0.015,0.18-0.028,0.279
						c-0.016,0.091-0.043,0.357-0.328,0.528c-0.289,0.145-0.493,0.059-0.609,0.021c-0.134-0.053-0.186-0.088-0.273-0.128
						c-0.907-0.464-1.681-1.098-2.282-1.801c-0.301-0.354-0.556-0.712-0.778-1.103c-0.215-0.388-0.394-0.878-0.291-1.382
						l0.087-0.427l0.388,0.141c1.428,0.52,2.204,1.521,2.658,2.176c0.451,0.682,0.605,1.119,0.544,1.157
						c-0.071,0.043-0.352-0.319-0.879-0.892c-0.527-0.555-1.336-1.381-2.545-1.737l0.474-0.284c-0.085,0.486,0.44,1.19,0.972,1.798
						c0.552,0.612,1.247,1.165,2.051,1.574c0.064,0.032,0.159,0.083,0.181,0.089l0.014,0.005c0.001-0.005-0.021,0.099-0.021,0.128
						c-0.009,0.087,0.012,0.134,0.012,0.134c0.008,0.012-0.002-0.016-0.088-0.053l-0.08-0.029c-0.029-0.01-0.09-0.026-0.073-0.022
						l0.005-0.021l0.022-0.211c0.022-0.292,0.007-0.598-0.007-0.917c-0.025-0.631-0.049-1.241-0.072-1.83
						c-0.01-0.29-0.018-0.575-0.027-0.853l-0.006-0.156l-0.001-0.011l0.077-0.031c0.053-0.023,0.069-0.042,0.069-0.042
						c0.022-0.038-0.018,0.047-0.001,0.087c0.003,0.021,0.008,0.03,0.008,0.03l-0.008-0.013l-0.009-0.013
						c0.018,0.021-0.043-0.049,0.04,0.049l0,0h-0.001h0c-0.039,0.004-0.157,0.319-0.212,0.509c-0.065,0.214-0.113,0.425-0.144,0.629
						C219.964,543.637,220.58,544.646,220.438,544.697z"/>
				</g>
				<g>
					<path fill="#D7D7FF" d="M232.254,541.271c-0.09-0.083-0.012-0.364-0.261-0.836c-0.25-0.491-0.618-1.216-1.056-1.961
						c-0.447-0.761-0.865-1.396-1.246-1.769c-0.373-0.378-0.698-0.529-0.673-0.655c0.01-0.109,0.456-0.174,1.042,0.16
						c0.587,0.328,1.165,1.025,1.629,1.82c0.477,0.813,0.765,1.596,0.894,2.224c0.063,0.323,0.034,0.634-0.066,0.818
						C232.42,541.258,232.298,541.303,232.254,541.271z"/>
				</g>
			</g>
			<g>
				<path fill="#54A5F8" d="M182.111,428.854c0,0-1.742,16.08-0.013,21.72l3.341,3.759c0,0,3.491,32.764,2.148,39.207
					c-1.342,6.445-2.456,8.595-2.974,9.669s1.094,34.374,1.094,34.374h5.908l10.473-43.236l-1.611-35.18l11.548,36.791
					l-1.612,52.903l8.056,1.879l7.52-60.943l-7.255-53.186l-35.443-6.714"/>
			</g>
			<g>
				<path fill="#548BA3" d="M220.107,401.417l-4.084,35.443c-3.29,2.508-8.208,5.261-24.203,3.083
					c-18.719-2.551-7.266-25.898-7.266-25.898l-2.537-38.571h35.648c0,0,6.926,2.105,11.549,11.316"/>
				<path fill="#FFE7D7" d="M225.059,345.531c0,0,0.017,2.728-0.165,6.354c-0.302,6.042-1.152,14.577-3.542,17.115
					c-3.824,4.061-8.309,1.733-8.309,1.733l-2.77-17.725L225.059,345.531z"/>
				<path fill="#C10876" d="M216.328,336.454c0.922,0.409,18.157,7.171,2.194,20.899c0,0-2.964-3.439-4.241,0.072
					c-1.278,3.511,9.07,6.166,0.77,21.17c0,0-5.428,3.512-2.554,11.813c2.873,8.301-7.981,18.197-14.047,9.578
					c-6.066-8.621-10.216-6.386-15.962-10.217c-5.747-3.831-12.451-15.962,6.385-25.86c0,0,3.582-2.037,1.596-6.703
					C186.633,348.195,199.088,328.792,216.328,336.454z"/>
			</g>
			<path fill="#2A657A" d="M220.051,400.599c0,0-3.8,0.076-5.66,13.757s-2.656,24.174-2.656,24.174l4.782-2.523L220.051,400.599z"/>
			<g>
				<g>
					<linearGradient id="SVGID_7_" gradientUnits="userSpaceOnUse" x1="302.7539" y1="472.1924" x2="132.1846" y2="472.1924">
						<stop  offset="0" style="stop-color:#FF7F8A"/>
						<stop  offset="0.1047" style="stop-color:#F6798B"/>
						<stop  offset="0.2787" style="stop-color:#DC6A8E"/>
						<stop  offset="0.5007" style="stop-color:#B35192"/>
						<stop  offset="0.7596" style="stop-color:#7A2E98"/>
						<stop  offset="0.7629" style="stop-color:#792E98"/>
					</linearGradient>
					<path fill="url(#SVGID_7_)" d="M302.754,382.561v93.997c0,4.48-2.363,8.622-6.201,10.868l-145.708,85.268
						c-8.287,4.85-18.66-1.191-18.66-10.867v-97.513c0-2.669,1.411-5.134,3.7-6.464l148.24-86.176
						C292.412,366.857,302.754,372.901,302.754,382.561z"/>
					<linearGradient id="SVGID_8_" gradientUnits="userSpaceOnUse" x1="138.5835" y1="473.668" x2="302.7539" y2="473.668">
						<stop  offset="0" style="stop-color:#FF7F8A"/>
						<stop  offset="0.1047" style="stop-color:#F6798B"/>
						<stop  offset="0.2787" style="stop-color:#DC6A8E"/>
						<stop  offset="0.5007" style="stop-color:#B35192"/>
						<stop  offset="0.7596" style="stop-color:#7A2E98"/>
						<stop  offset="0.7629" style="stop-color:#792E98"/>
					</linearGradient>
					<path fill="url(#SVGID_8_)" d="M302.754,380.295v100.178c0,2.622-1.397,5.046-3.666,6.361l-149.469,86.568
						c-4.9,2.838-11.035-0.697-11.035-6.36v-100.75c0-2.631,1.406-5.06,3.685-6.372l149.469-85.997
						C296.638,371.104,302.754,374.641,302.754,380.295z"/>
					<g>
						<polygon fill="#F2D577" points="173.558,485.487 173.8,491.342 154.344,502.279 154.249,496.372 						"/>
						<path fill="#F2D577" d="M154.164,491.069c-0.031-1.938,0.948-3.753,2.585-4.792l12.733-8.07
							c1.634-1.037,3.778,0.086,3.857,2.019l0.163,3.95l-19.275,10.867L154.164,491.069z"/>
						<path fill="#F2D577" d="M174.04,497.141c0.039,0.946-0.458,1.835-1.284,2.298l-14.62,8.187
							c-1.66,0.929-3.711-0.252-3.742-2.154l-0.033-2.08l19.501-10.522L174.04,497.141z"/>
					</g>
					
						<text transform="matrix(-1.034 0.5938 -0.0547 0.9985 286.5884 464.918)" fill="#FFFFFF" font-family="'OpenSans-Semibold'" font-size="10.4701">0000 0000 0000 oooo</text>
				</g>
				
					<text transform="matrix(1.0759 -0.5899 0.0973 0.9952 234.6157 453.4316)" fill="#FFFFFF" font-family="'Gilroy-ExtraBold'" font-size="19.7497" letter-spacing="0.815">xxxx</text>
			</g>
			<g opacity="0.29">
				<path fill="#305989" d="M251.743,398.962l3.098,2.352c0,0-4.53,12.528-11.129,17.721c-6.6,5.193-17.05-11.898-17.05-11.898
					l5.191-6.565c0,0,7.458,10.242,8.723,9.903C241.839,410.135,251.743,398.962,251.743,398.962z"/>
				<path fill="#305989" d="M251.743,398.962c0,0-1.31-3.615-0.849-4.601c0.461-0.986,1.224,2.644,1.698,2.881
					c0.473,0.236,1.493-6.136,1.871-5.674c0.379,0.464,0.378,3.896,0.378,3.896s0.514-3.894,1.106-3.92s0.197,4.788,0.197,4.788
					s0.513-3.788,0.908-3.59c0.395,0.196,0.079,4.342,0,4.973c-0.079,0.631-2.211,3.598-2.211,3.598L251.743,398.962z"/>
			</g>
			<g>
				<path fill="#F4C4A4" d="M252.945,395.527l3.098,2.353c0,0-4.53,12.529-11.129,17.721c-6.6,5.192-17.05-11.899-17.05-11.899
					l5.191-6.565c0,0,7.458,10.242,8.723,9.903C243.042,406.7,252.945,395.527,252.945,395.527z"/>
				<path fill="#F4C4A4" d="M252.945,395.527c0,0-1.31-3.615-0.848-4.601c0.461-0.985,1.223,2.644,1.697,2.881
					c0.474,0.237,1.493-6.136,1.872-5.672c0.378,0.462,0.377,3.896,0.377,3.896s0.514-3.895,1.106-3.921
					c0.592-0.027,0.197,4.789,0.197,4.789s0.513-3.79,0.908-3.592c0.395,0.197,0.079,4.342,0,4.973
					c-0.079,0.633-2.211,3.599-2.211,3.599L252.945,395.527z"/>
			</g>
			<polygon fill="#548BA3" points="219.481,398.976 225.272,407.159 234.701,396.596 228.434,385.334 			"/>
		</g>
	</g>
	<polygon opacity="0.38" fill="#2E5F99" points="257.246,528.386 257.246,519.106 299.578,495.043 292.494,490.652 242.593,519.553 
			"/>
	<g>
		<g>
			<polygon fill="#706EED" points="349.611,633.801 370.676,644.75 373.874,638.308 378.956,639.274 378.956,586.793 
				356.751,579.266 			"/>
		</g>
		<g>
			<path fill="#5C5CC6" d="M360.168,584.071c0.019,0.233,11.071,6.862,11.071,6.862l1.506-4.141h6.211l-19.434-13.117
				L360.168,584.071z"/>
		</g>
		<g opacity="0.38">
			<path fill="#2E5F99" d="M371.239,590.934l-0.563,53.816c0,0,3.198-5.544,3.198-6.442c0-0.896-1.129-51.515-1.129-51.515
				L371.239,590.934z"/>
		</g>
		<g opacity="0.46">
			<polygon fill="#ABD5FF" points="372.745,586.793 373.874,638.308 378.956,639.274 378.956,586.793 			"/>
		</g>
		<g opacity="0.15">
			<polygon fill="#2E5F99" points="356.018,637.131 366.678,632.662 362.592,585.67 359.737,583.893 352.709,635.954 			"/>
		</g>
		<g>
			
				<ellipse transform="matrix(0.9607 -0.2775 0.2775 0.9607 -171.5698 119.2059)" fill="#001B5E" cx="335.327" cy="665.697" rx="35.302" ry="9.452"/>
		</g>
		<g>
			<g>
				<path fill="#F4C4A4" d="M342.104,612.009c0,0.968,4.649,52.961,4.649,52.961h5.616l0.671-57.371L342.104,612.009z"/>
			</g>
			<g>
				<path fill="#706EED" d="M352.402,663.81c0,0-13.913-7.848-15.978-3.513c-2.067,4.335,16.286,5.4,16.286,5.4L352.402,663.81z"/>
			</g>
			<g>
				<path fill="#F4C4A4" d="M342.104,659.435c0,0,3.092,6.636,9.989,4l-2.025-2.293l-3.175-0.258L342.104,659.435z"/>
			</g>
		</g>
		<g opacity="0.15">
			<path fill="#2E5F99" d="M344.485,641.307l0.353,2.163c0,0,6.359-0.101,7.821-3.177l0.05-4.339l-5.136-25.423L344.485,641.307z"/>
		</g>
		<g>
			<g>
				<path fill="#F4C4A4" d="M321.572,637.658c-0.388,0.774,1.162,37.383,1.162,37.383h5.619l2.905-37.383H321.572z"/>
			</g>
			<g>
				<path fill="#706EED" d="M328.606,674.407c0,0-13.912-7.848-15.979-3.513c-2.066,4.336,16.287,5.399,16.287,5.399
					L328.606,674.407z"/>
			</g>
			<g>
				<path fill="#F4C4A4" d="M317.615,669.865c0,0,3.092,6.636,9.989,4l-2.026-2.293l-3.175-0.258L317.615,669.865z"/>
			</g>
		</g>
		<g opacity="0.15">
			<path fill="#2E5F99" d="M321.616,644.75l0.112,3.779c0,0,4.053,3.344,8.685,0l0.193-2.5L321.616,644.75z"/>
		</g>
		<g>
			<polygon fill="#F4C4A4" points="302.232,549.588 317.081,559.16 319.141,552.506 312.374,542.632 			"/>
		</g>
		<g>
			<path fill="#D34459" d="M312.801,640.937c0,0-1.574-59.844,1.312-71.13c2.888-11.287,6.617-22.127,6.617-22.127l30.13-12.521
				v7.348c0,0,7.684,11.288,8.174,23.362c0.487,12.073,5.475,64.832,5.475,64.832l-14.699,7.611l-2.363-25.461l-0.263,26.772
				C347.186,639.624,328.025,653.536,312.801,640.937z"/>
		</g>
		<g opacity="0.38">
			<path fill="#7042D3" d="M319.848,550.327l-0.707,2.179c0,0,14.513,8.067,32.801-8.107l-1.081-1.892V538.8L319.848,550.327z"/>
		</g>
		<g>
			<path fill="#64E1C0" d="M317.761,500.062c0,0-7.571,1.574-10.983,10.76c-3.413,9.188-4.545,38.767-4.545,38.767
				s1.935,7.292,8.498,4.929c6.561-2.361,4.71-29.783,4.71-29.783s1.227,21.523,2.32,23.885c0.134,0.295,0.435,0.633,0.882,0.973
				c3.128,2.387,13.464,4.999,25.406-4.647c13.648-11.022,11.287-14.435,11.287-14.435l-3.675-30.447H317.761z"/>
		</g>
		<g opacity="0.38">
			<g>
				<path fill="#2E5F99" d="M312.374,594.813c2.292,0.006,3.873-1.092,4.935-2.372c1.39-1.678,1.971-3.883,1.762-6.051l-0.59-6.145
					h-5.541"/>
			</g>
		</g>
		<g>
			<g>
				<path fill="#5D5C9F" d="M318.442,581.804L304.806,580l0.415-25.497l1.677,0.028l-0.39,24l10.279,1.36
					c0.07-7.218,0.431-53.489-1.715-67.621c-0.767-5.05-1.593-8.077-2.246-9.79l-1.096,0.917c-1.012-1.211-1.388-2.952-0.84-3.883
					c0.275-0.464,0.759-0.688,1.269-0.594c2.202,0.427,3.701,7.357,4.572,13.097c2.34,15.4,1.73,68.307,1.725,68.839
					L318.442,581.804z"/>
			</g>
			<g>
				<g>
					<path fill="#5D5C9F" d="M304.773,578.432v6.813c0,0-0.533,5.838,6.9,6.211c7.431,0.372,6.898-5.789,6.898-5.789l-0.092-5.422
						L304.773,578.432z"/>
				</g>
				<g>
					<polygon fill="#706EED" points="304.766,578.025 311.674,585.67 318.48,580.245 					"/>
				</g>
			</g>
		</g>
		<g opacity="0.15">
			<path fill="#2E5F99" d="M322.431,518.265c0,0,0.879,17.72,13.109,9.26c12.231-8.46,10.71-11.957,17.999-11.911l-1.085-6.483
				L322.431,518.265z"/>
		</g>
		<g>
			<g>
				<path fill="#FFDFCA" d="M310.73,471.813c0,0-0.112,18.458,3.525,22.32s7.901,1.649,7.901,1.649l2.635-16.857L310.73,471.813z"/>
			</g>
			<g>
				<path fill="#F2C15B" d="M319.033,462.354c-0.876,0.389-17.001,6.375-1.821,19.431c0,0,1.821-3.34,3.036,0
					c1.215,3.339-7.893,6.375,0,20.645c0,0,5.162,3.341,2.43,11.233c-2.733,7.895,7.59,17.308,13.359,9.109
					c5.768-8.197,9.714-6.073,15.18-9.715c5.036-3.358,10.848-13.422-2.296-22.346c-1.571-1.066-3.411-1.588-5.271-1.971
					c-0.982-0.203-1.794-1.517-0.023-6.652C346.663,473.282,335.428,455.066,319.033,462.354z"/>
			</g>
		</g>
	</g>
	<path fill="none" stroke="#417ED6" stroke-miterlimit="10" d="M481.964,345.256"/>
	<g>
		<ellipse fill="#001B5E" cx="167.125" cy="324.004" rx="43.126" ry="16.757"/>
		<g>
			<path fill="#00089B" d="M142.824,280.838c-0.291-0.013-15.412-2.53-17.942,2.349c-2.531,4.882,17.532,26.596,40.849,31.825
				c23.316,5.229,51.693,4.507,51.693,4.507s0.181-4.882-4.519-9.219c-4.699-4.338-21.871-16.087-21.871-16.087
				S154.637,281.356,142.824,280.838z"/>
			<polygon fill="#171749" points="134.769,240.57 136.782,239.321 150.132,244.169 152.308,270.665 150.878,272.052 			"/>
			<path fill="#2E2E5B" d="M134.769,240.57c0,0.556,3.519,28.147,3.519,28.147l12.591,3.334l-2.593-26.48L134.769,240.57"/>
			<linearGradient id="SVGID_9_" gradientUnits="userSpaceOnUse" x1="152.8257" y1="265.9858" x2="211.9355" y2="265.9858">
				<stop  offset="0" style="stop-color:#FF7F8A"/>
				<stop  offset="0.1047" style="stop-color:#F6798B"/>
				<stop  offset="0.2787" style="stop-color:#DC6A8E"/>
				<stop  offset="0.5007" style="stop-color:#B35192"/>
				<stop  offset="0.7596" style="stop-color:#7A2E98"/>
				<stop  offset="0.7629" style="stop-color:#792E98"/>
			</linearGradient>
			<path fill="url(#SVGID_9_)" d="M152.887,254.854c0,0-0.826-18.751,3.608-21.324c0.044-0.025,0.089-0.05,0.133-0.077
				c5.513-3.206,12.016-4.237,18.243-2.862c11.695,2.582,29.332,7.732,32.144,15.732c4.264,12.138,4.92,22.636,4.92,22.636
				s-6.561,6.89-11.81,4.921c0,0,3.608,19.683-3.28,25.261c0,0-22.308,10.826-39.694-9.842l2.156-7.546v-23.619
				C159.307,258.134,155.839,258.79,152.887,254.854z"/>
			<path fill="#F4C4A4" d="M209.747,270.907c1.025,4.354,2.981,19.023,0.124,27.516c-3.625,10.773-11.793,13.5-11.771,13.44
				l-13.888,3.148c0,0,14.939-12.321,16.481-18.518c2.869-11.533,0.46-22.34,0.46-22.34
				C204.565,274.14,207.328,272.857,209.747,270.907z"/>
			<path fill="#00089B" d="M127.576,281.616c0.745,0.031,13.037,3.837,20.99,18.249s18.255,26.702,18.255,26.702l-10.845,7.229
				l-27.834-35.245C128.141,298.551,119.261,281.253,127.576,281.616z"/>
			<path fill="#00089B" d="M217.424,319.519c0,0,2.431-10.612-14.64-8.135c-17.071,2.478-54.09,14.572-54.09,14.572v9.83
				C148.693,335.786,214.893,328.192,217.424,319.519z"/>
			<path opacity="0.29" fill="#417ED6" d="M159.307,231.853c0,0,1.885,9.789,12.455,6.486l3.138-0.992l3.247,4.057l8.575-7.699
				l-22.354-5.094L159.307,231.853z"/>
			<path fill="#F4C4A4" d="M159.775,205.975c0,0-2.296,23.948,3.28,28.54c5.577,4.593,12.794,0,12.794,0l2.297,6.89
				c0,0,6.561,2.624,9.513-3.281l-2.297-10.826c0,0,4.593-7.217,2.297-8.857c-2.297-1.64-6.233,2.297-6.233,2.297l0.984-14.762
				H159.775z"/>
			<path fill="#A59442" d="M159.307,212.835c0,0-13.925-3.151-5.689-9.354c8.236-6.202,23.996-3.123,25.216-1.714
				c0,0,9.989-2.76,9.468,6.392c-0.52,9.151-0.643,10.281-0.643,10.281c-2.044-0.522-3.665,0.172-6.466,2.632l-0.529-12.101
				C180.665,208.971,165.912,214.768,159.307,212.835z"/>
			<polygon fill="#0F0F3A" points="136.064,251.496 143.901,255.719 143.901,267.243 142.169,267.775 143.098,269.99 
				139.239,268.775 			"/>
			<path fill="#F4C4A4" d="M140.323,266.311c0,0.185,5.926,15.739,9.445,13.333s3.119-24.789,3.119-24.789l9.844,1.087
				c0,0,3.333,33.516-12.222,33.886c-15.555,0.372-16.666-22.406-16.666-22.406l-2.717-8.78c-0.682-2.204,0.28-4.585,2.302-5.696
				l2.637-1.449l5.925,3.517l0.186,10.279L140.323,266.311z"/>
			<linearGradient id="SVGID_10_" gradientUnits="userSpaceOnUse" x1="139.1782" y1="254.9189" x2="167.3023" y2="231.6496">
				<stop  offset="0.0234" style="stop-color:#E9DD00"/>
				<stop  offset="0.1475" style="stop-color:#F5FFA9;stop-opacity:0.8525"/>
				<stop  offset="0.993" style="stop-color:#1D7CD8;stop-opacity:0"/>
			</linearGradient>
			<polygon fill="url(#SVGID_10_)" points="136.782,239.321 158.227,212.547 184.211,217.124 184.211,242.744 152.308,270.665 
				150.132,244.169 			"/>
			<g>
				<path fill="#153DBA" d="M157.848,314.663c-0.094,0.07-1.325-1.37-3.186-3.793c-1.867-2.42-4.346-5.834-7.136-9.553
					c-2.794-3.719-5.438-6.986-7.451-9.269c-2.003-2.288-3.326-3.636-3.232-3.735c0.071-0.077,1.55,1.118,3.687,3.317
					c2.145,2.193,4.89,5.429,7.695,9.161c2.801,3.735,5.201,7.206,6.937,9.715C156.893,313.021,157.947,314.588,157.848,314.663z"/>
			</g>
			<g>
				<path fill="#153DBA" d="M135.217,286.763c-0.145,0.195-0.906-0.125-1.77-0.606c-0.86-0.487-1.531-0.972-1.439-1.196
					c0.089-0.222,0.953-0.081,1.867,0.434C134.792,285.907,135.361,286.571,135.217,286.763z"/>
			</g>
			<g>
				<path fill="#153DBA" d="M206.922,312.463c-0.001,0.131-1.599,0.193-4.164,0.362c-2.566,0.166-6.102,0.481-9.972,1.087
					c-3.87,0.61-7.332,1.396-9.825,2.024c-2.494,0.628-4.032,1.059-4.074,0.934c-0.036-0.104,1.435-0.744,3.906-1.527
					c2.467-0.786,5.946-1.678,9.857-2.294c3.91-0.612,7.494-0.833,10.084-0.842C205.328,312.196,206.925,312.352,206.922,312.463z"
					/>
			</g>
			<g>
				<path fill="#153DBA" d="M202.449,310.326c0.105,0.22-0.876,0.907-2.103,1.693c-1.229,0.781-2.266,1.384-2.421,1.193
					c-0.152-0.181,0.672-1.117,1.951-1.93C201.152,310.464,202.348,310.111,202.449,310.326z"/>
			</g>
			<g>
				<g>
					
						<ellipse transform="matrix(0.9882 -0.1529 0.1529 0.9882 -49.2624 26.8171)" fill="#153DBA" cx="149.73" cy="333.706" rx="1.047" ry="0.437"/>
				</g>
				<g>
					
						<ellipse transform="matrix(0.9869 -0.1611 0.1611 0.9869 -51.5114 29.6975)" fill="#153DBA" cx="157.368" cy="332.484" rx="2.229" ry="0.437"/>
				</g>
				<g>
					
						<ellipse transform="matrix(0.9855 -0.1695 0.1695 0.9855 -53.6938 32.9489)" fill="#153DBA" cx="166.165" cy="331.008" rx="2.23" ry="0.437"/>
				</g>
				<g>
					
						<ellipse transform="matrix(0.9839 -0.1785 0.1785 0.9839 -55.9899 36.5132)" fill="#153DBA" cx="174.951" cy="329.457" rx="2.231" ry="0.438"/>
				</g>
				<g>
					
						<ellipse transform="matrix(0.9818 -0.1898 0.1898 0.9818 -58.8672 40.8185)" fill="#153DBA" cx="183.722" cy="327.816" rx="2.231" ry="0.438"/>
				</g>
				<g>
					
						<ellipse transform="matrix(0.9786 -0.2058 0.2058 0.9786 -62.9788 46.5867)" fill="#153DBA" cx="192.468" cy="326.053" rx="2.23" ry="0.437"/>
				</g>
				<g>
					<path fill="#153DBA" d="M203.345,323.588c0.059,0.234-0.868,0.656-2.069,0.943c-1.201,0.287-2.218,0.328-2.271,0.094
						c-0.054-0.236,0.873-0.659,2.069-0.943C202.269,323.395,203.286,323.354,203.345,323.588z"/>
				</g>
				<g>
					<path fill="#153DBA" d="M211.93,321.152c0.078,0.228-0.82,0.706-2.004,1.068c-1.186,0.361-2.199,0.465-2.263,0.231
						c-0.064-0.231,0.833-0.709,2.005-1.067C210.838,321.027,211.852,320.924,211.93,321.152z"/>
				</g>
				<g>
					<path fill="#153DBA" d="M217.667,318.169c0.242,0.098,0.062,0.737-0.469,1.096c-0.514,0.372-1.04,0.409-1.149,0.2
						c-0.115-0.215,0.206-0.593,0.632-0.902C217.115,318.26,217.447,318.079,217.667,318.169z"/>
				</g>
			</g>
			<g>
				<path fill="#C1636C" d="M148.693,335.786c0,0-23.937,7.993-25.762,5.791c-1.825-2.202,1.436-5.125,5.987-8.208
					c4.551-3.084,17.609-9.497,17.609-9.497l2.166,2.085V335.786z"/>
				<g>
					<path fill="#A04A57" d="M147.866,325.188c0.042,0.126-1.554,0.727-4.054,1.853c-2.499,1.121-5.896,2.803-9.411,5.055
						c-1.768,1.112-3.372,2.285-4.831,3.369c-1.451,1.062-2.768,2.027-3.901,2.858c-1.112,0.812-2.049,1.434-2.652,1.883
						c-0.603,0.456-0.877,0.779-0.93,0.74c-0.047-0.028,0.145-0.437,0.706-0.996c0.564-0.556,1.434-1.243,2.5-2.118
						c1.072-0.867,2.349-1.891,3.792-3.011c1.436-1.123,3.055-2.333,4.847-3.462c3.566-2.285,7.059-3.903,9.644-4.89
						C146.162,325.478,147.832,325.084,147.866,325.188z"/>
				</g>
				<g>
					<path fill="#A04A57" d="M138.178,338.899c-0.043,0.117-0.385,0.056-0.651-0.293c-0.253-0.322-0.495-0.754-0.705-1.29
						c-0.416-1.062-0.452-2.008-0.22-2.064c0.236-0.061,0.641,0.743,1.035,1.749c0.194,0.497,0.356,0.987,0.433,1.312
						C138.139,338.623,138.229,338.787,138.178,338.899z"/>
				</g>
				<g>
					<path fill="#A04A57" d="M140.793,338.339c0.017,0.021,0.025,0.067-0.041,0.103c-0.069,0.035-0.175,0.008-0.25-0.045
						c-0.17-0.146-0.236-0.256-0.372-0.451c-0.243-0.372-0.512-0.92-0.729-1.554c-0.436-1.274-0.477-2.383-0.243-2.432
						c0.239-0.052,0.651,0.929,1.07,2.15c0.208,0.61,0.378,1.171,0.471,1.596c0.043,0.195,0.081,0.426,0.061,0.47
						c0.005,0.036-0.016,0.067-0.017,0.097C140.743,338.291,140.777,338.317,140.793,338.339z"/>
				</g>
				<g>
					<path fill="#A04A57" d="M143.747,337.521c-0.201,0.124-0.944-0.726-1.439-1.998c-0.5-1.271-0.531-2.399-0.298-2.445
						c0.241-0.049,0.642,0.934,1.112,2.127C143.585,336.399,143.958,337.394,143.747,337.521z"/>
				</g>
				<g>
					<path fill="#A04A57" d="M144.487,337.925c-0.043-0.016,0.017-0.368,0.438-0.828c0.407-0.44,1.238-1.002,2.413-0.923
						c0.285,0.033,0.593,0.081,0.904,0.247c0.287,0.164,0.629,0.406,0.729,0.904c0.041,0.244-0.022,0.506-0.174,0.715
						c-0.154,0.205-0.363,0.328-0.565,0.4c-0.399,0.156-0.872,0.097-1.203,0.013c-0.173-0.038-0.333-0.078-0.479-0.097
						c-0.072-0.009-0.142-0.017-0.206-0.016c-0.086,0-0.072,0.003-0.243,0.019c-0.081,0.009-0.267-0.013-0.398-0.117
						c-0.127-0.1-0.174-0.202-0.208-0.271l-0.11-0.278c-0.065-0.172-0.132-0.345-0.198-0.52c-0.265-0.701-0.528-1.441-0.741-2.222
						c-0.216-0.791-0.371-1.59-0.418-2.375c-0.038-0.756-0.073-1.616,0.429-2.356l0.361-0.533l0.314,0.551
						c1.088,1.902,1.092,3.842,0.831,5.064c-0.267,1.248-0.719,1.858-0.781,1.823c-0.099-0.041,0.186-0.709,0.299-1.895
						c0.113-1.164-0.016-2.925-1.037-4.577l0.676,0.019c-0.289,0.431-0.297,1.125-0.237,1.843c0.054,0.715,0.202,1.456,0.406,2.205
						c0.203,0.744,0.451,1.462,0.702,2.159c0.063,0.173,0.125,0.347,0.188,0.518l0.085,0.231c-0.008,0.006,0.021-0.006-0.018,0.014
						l-0.102,0.059c-0.051,0.036-0.074,0.06-0.085,0.073c-0.025,0.025,0.021,0.027,0.009-0.234c0.007-0.031,0.2-0.028,0.291-0.028
						c0.113,0.001,0.219,0.016,0.32,0.031c0.201,0.034,0.376,0.084,0.536,0.125c0.597,0.212,1.104-0.017,1.039-0.242
						c0-0.117-0.154-0.308-0.344-0.42c-0.181-0.116-0.417-0.175-0.643-0.219c-0.922-0.138-1.69,0.24-2.112,0.559
						C144.715,337.678,144.549,337.962,144.487,337.925z"/>
				</g>
				<g>
					<path fill="#A04A57" d="M143.743,328.87c0.044,0.254-2.314,0.778-4.939,2.086c-2.639,1.281-4.493,2.83-4.667,2.639
						c-0.168-0.15,1.504-2.071,4.282-3.423C141.185,328.798,143.727,328.646,143.743,328.87z"/>
				</g>
			</g>
			<g>
				<path fill="#C1636C" d="M157.848,334.605c0,0,13.491,17.802,17.602,14.717c4.11-3.083-6.416-16.295-6.416-16.295
					L157.848,334.605z"/>
				<g>
					<path fill="#A04A57" d="M171.762,339.977c0.127,0.209-0.854,1.024-2.05,2.012c-0.917,0.747-1.709,1.387-2.115,1.574
						l-0.907,0.423l0.645-0.607c0.106-0.1,0.188-0.141,0.239-0.115c0.052,0.026,0.068,0.115,0.052,0.261l-0.263-0.186
						c0.176-0.414,0.839-1.246,1.795-2.025C170.411,340.282,171.643,339.772,171.762,339.977z"/>
				</g>
				<g>
					<path fill="#A04A57" d="M170.499,337.544c0.113,0.22-0.902,0.945-2.043,1.929c-0.464,0.403-0.91,0.792-1.469,1.276
						c-0.187,0.166-0.382,0.3-0.434,0.331c-0.037,0.035-0.059,0.036-0.084,0.05c-0.023,0.02-0.011,0.059-0.02,0.087
						c-0.007,0.025-0.041,0.063-0.116,0.025c-0.077-0.042-0.113-0.163-0.104-0.266c0.036-0.247,0.161-0.4,0.291-0.631
						c0.282-0.448,0.753-1.015,1.368-1.537C169.123,337.747,170.4,337.332,170.499,337.544z"/>
				</g>
				<g>
					<path fill="#A04A57" d="M168.349,335.895c0.125,0.222-0.899,0.943-2.107,1.774c-1.214,0.818-2.027,1.662-2.232,1.534
						c-0.216-0.119,0.401-1.353,1.729-2.249C167.04,336.061,168.24,335.698,168.349,335.895z"/>
				</g>
				<g>
					<path fill="#A04A57" d="M164.606,335.917c0.03,0.013-0.051,0.139-0.233,0.069c-0.205-0.091-0.229-0.372-0.27-0.59
						c-0.086-0.49-0.164-1.208-0.18-2.101c-0.008-0.447,0.001-0.936,0.034-1.46c0.016-0.263,0.038-0.534,0.067-0.812
						c0.012-0.119,0.027-0.328,0.114-0.522c0.045-0.097,0.097-0.2,0.219-0.312c0.107-0.113,0.368-0.202,0.561-0.141
						c0.212,0.05,0.342,0.201,0.406,0.296c0.072,0.109,0.099,0.178,0.134,0.253c0.073,0.146,0.135,0.3,0.189,0.459
						c0.108,0.318,0.188,0.653,0.221,1c0.076,0.687,0.001,1.418-0.242,2.115c-0.238,0.696-0.64,1.321-1.153,1.808
						c-0.26,0.244-0.581,0.469-0.966,0.575c-0.384,0.103-0.771,0.069-1.097-0.021c-0.327-0.091-0.61-0.229-0.864-0.371
						c-0.131-0.073-0.242-0.139-0.373-0.222c-0.069-0.045-0.165-0.111-0.249-0.226c-0.086-0.116-0.133-0.278-0.123-0.413
						c0.029-0.542,0.557-0.778,0.862-0.762c0.324-0.001,0.533,0.063,0.764,0.109c1.808,0.459,2.609,1.353,2.54,1.415
						c-0.074,0.124-0.985-0.547-2.657-0.808c-0.201-0.026-0.447-0.063-0.604-0.045c-0.183,0.012-0.149,0.103-0.214,0.109
						c-0.04-0.006-0.083,0.029-0.013-0.018c0.069-0.064,0.03-0.009,0.09,0.002l0.336,0.178c0.231,0.116,0.47,0.212,0.706,0.271
						c0.483,0.117,0.874,0.004,1.273-0.396c0.396-0.392,0.723-0.902,0.917-1.474c0.201-0.572,0.269-1.176,0.215-1.743
						c-0.021-0.285-0.081-0.56-0.162-0.822c-0.039-0.131-0.087-0.256-0.142-0.378c-0.025-0.063-0.055-0.129-0.065-0.145
						l-0.004-0.008c0.036-0.031,0.061-0.055,0.081-0.078c0.033-0.03,0.05-0.094,0.034-0.036c0.018-0.086-0.018-0.041,0.068,0.055
						c0.011,0.011,0.059,0.063,0.058,0.056l-0.006,0.006c-0.005,0.008-0.014,0.019-0.022,0.034
						c-0.035,0.067-0.046,0.141-0.069,0.294c-0.037,0.267-0.072,0.528-0.107,0.781c-0.062,0.506-0.107,0.978-0.138,1.412
						c-0.063,0.865-0.08,1.571-0.098,2.062c-0.012,0.261-0.029,0.413,0.024,0.462C164.522,335.906,164.587,335.895,164.606,335.917z
						"/>
				</g>
				<g>
					<path fill="#A04A57" d="M171.639,337.153c0.062-0.023,0.211,0.231,0.494,0.67c0.279,0.442,0.718,1.055,1.264,1.835
						c0.525,0.781,1.221,1.749,1.533,3.077c0.315,1.318,0.074,2.933-0.926,4.202c-0.504,0.617-1.201,1.12-2.023,1.242
						c-0.847,0.124-1.565-0.227-2.12-0.509c-1.162-0.593-2.071-1.354-2.73-2.071c-1.324-1.452-1.687-2.639-1.597-2.673
						c0.124-0.07,0.679,0.984,2.033,2.236c0.675,0.622,1.561,1.276,2.65,1.787c0.549,0.259,1.109,0.481,1.636,0.384
						c0.538-0.084,1.071-0.452,1.472-0.947c0.803-1.012,1.049-2.374,0.818-3.486c-0.22-1.137-0.808-2.097-1.268-2.912
						c-0.474-0.815-0.85-1.504-1.045-2.009C171.632,337.475,171.587,337.172,171.639,337.153z"/>
				</g>
			</g>
			<g>
				<path fill="#FFFFFF" d="M200.125,274.403c-0.352,0.084-1.326-2.982-2.174-6.846c-0.85-3.865-1.25-7.056-0.894-7.128
					c0.354-0.072,1.328,2.992,2.174,6.847C200.078,271.129,200.478,274.319,200.125,274.403z"/>
			</g>
			<g>
				<path fill="#FFFFFF" d="M180.139,290.416c-0.103,0.33-4.649-0.856-9.816-3.422c-5.178-2.55-8.878-5.444-8.679-5.725
					c0.211-0.314,4.174,2.047,9.259,4.549C175.977,288.34,180.26,290.058,180.139,290.416z"/>
			</g>
			<g>
				<path fill="#FFFFFF" d="M188.19,278.182c0.063,0.033-0.011,0.425-0.394,1.01c-0.374,0.584-1.075,1.359-2.145,2.011
					c-1.059,0.67-2.453,1.21-4.023,1.587c-1.577,0.372-3.303,0.629-5.15,0.771c-3.691,0.309-7.099-0.172-9.404-0.968
					c-2.324-0.779-3.532-1.732-3.452-1.862c0.096-0.184,1.429,0.453,3.705,0.97c2.266,0.536,5.489,0.85,9.053,0.554
					c3.565-0.287,6.797-0.82,8.819-1.86C187.267,279.401,188.005,278.058,188.19,278.182z"/>
			</g>
		</g>
	</g>
	<g>
		<g>
			<path fill="#001B5E" d="M272.58,299.847l-44.717,2.481l-8.928,7.145c2.751,4.526,5.826,8.95,9.914,12.317
				c7.382,6.081,17.907,8.108,27.019,5.204s16.522-10.649,19.022-19.881c0.862-3.183,0.754-7.354-2.182-8.854"/>
		</g>
		<g>
			<g>
				<polygon fill="#706EED" points="257.304,309.555 265.168,301.44 272.58,299.847 267.757,267.301 262.505,273.037 
					257.032,272.92 				"/>
				<polygon fill="#2D2DE2" points="226.968,256.061 257.032,272.92 257.304,309.555 224.274,289.896 				"/>
				<polygon fill="#13009B" points="237.621,249.505 234.343,254.423 226.968,256.061 239.416,263.041 				"/>
				<polygon fill="#4848B7" points="267.757,267.301 248.676,256.033 237.621,249.505 237.621,262.035 257.032,272.92 
					262.505,273.037 				"/>
				<polygon fill="#706EED" points="248.535,251.915 256.334,256.273 256.334,260.554 258.056,261.572 258.056,256.744 
					256.334,253.629 248.535,249.505 246.722,250.325 246.722,254.879 248.676,256.033 				"/>
				<polygon fill="#706EED" points="240.079,258.287 247.338,262.383 247.338,267.483 249.273,268.569 249.273,263.428 
					248.011,260.511 239.416,255.538 237.621,257.115 237.621,262.035 240.105,263.428 				"/>
				<polygon opacity="0.38" fill="#2E5F99" points="262.505,273.037 265.168,301.44 257.304,309.555 257.032,272.92 				"/>
			</g>
			<linearGradient id="SVGID_11_" gradientUnits="userSpaceOnUse" x1="262.5049" y1="284.3701" x2="272.5801" y2="284.3701">
				<stop  offset="0.0284" style="stop-color:#DEE8F2"/>
				<stop  offset="1" style="stop-color:#C6CFD8"/>
			</linearGradient>
			<polygon opacity="0.24" fill="url(#SVGID_11_)" points="265.168,301.44 272.58,299.847 267.757,267.301 262.505,273.037 			"/>
		</g>
		<g>
			<g>
				<polygon fill="#706EED" points="250.042,327.515 257.906,319.398 265.318,317.805 260.496,285.259 255.243,290.995 
					249.771,290.878 				"/>
				<polygon fill="#2D2DE2" points="219.705,274.02 249.771,290.878 250.042,327.515 217.013,307.854 				"/>
				<polygon fill="#13009B" points="230.359,267.463 227.081,272.381 219.705,274.02 232.154,281 				"/>
				<polygon fill="#4848B7" points="260.496,285.259 241.415,273.991 230.359,267.463 230.359,279.995 249.771,290.878 
					255.243,290.995 				"/>
				<polygon fill="#706EED" points="241.272,269.875 249.072,274.232 249.072,278.514 250.794,279.529 250.794,274.702 
					249.072,271.589 241.272,267.463 239.46,268.283 239.46,272.839 241.415,273.991 				"/>
				<polygon fill="#706EED" points="232.817,276.243 240.076,280.341 240.076,285.442 242.011,286.529 242.011,281.386 
					240.749,278.469 232.154,273.498 230.359,275.074 230.359,279.995 232.843,281.388 				"/>
				<linearGradient id="SVGID_12_" gradientUnits="userSpaceOnUse" x1="260.4727" y1="317.085" x2="242.0181" y2="298.6304">
					<stop  offset="0" style="stop-color:#58CED8"/>
					<stop  offset="1" style="stop-color:#1D7CD8"/>
				</linearGradient>
				<polygon opacity="0.38" fill="url(#SVGID_12_)" points="255.243,290.995 257.906,319.398 250.042,327.515 249.771,290.878 				
					"/>
			</g>
			<linearGradient id="SVGID_13_" gradientUnits="userSpaceOnUse" x1="269.998" y1="313.126" x2="251.3143" y2="294.4422">
				<stop  offset="0" style="stop-color:#58CED8"/>
				<stop  offset="1" style="stop-color:#1D7CD8"/>
			</linearGradient>
			<polygon opacity="0.24" fill="url(#SVGID_13_)" points="257.906,319.398 265.318,317.805 260.496,285.259 255.243,290.995 			"/>
		</g>
	</g>
	<g>
		<g opacity="0.22">
			<g>
				<g>
					<path fill="#622E98" d="M586.012,592.553c2.523,0.227,4.991,0.779,7.523,0.676c3.785-0.154,7.669-0.379,11.129-1.922
						c3.459-1.545,6.449-4.709,6.689-8.49c0.15-2.352-0.754-4.655-0.775-7.012c-0.039-3.979,2.38-7.495,4.379-10.937
						c2-3.44,3.686-7.636,2.135-11.301c-1.771-4.184-7.156-6.106-8.515-10.441c-1.627-5.188,3.386-10.083,4.034-15.481
						c0.402-3.367-0.931-6.677-2.299-9.781c-1.577-3.578-3.271-7.175-5.84-10.125c-2.567-2.949-6.154-5.219-10.062-5.385
						c-3.907-0.164-8.022,2.184-9.14,5.932c-1.145,3.849,0.93,7.952,0.531,11.947c-0.695,6.951-8.388,11.324-10.023,18.114
						c-1.146,4.754,0.906,9.628,2.9,14.092c0.578,1.29,1.16,2.611,1.275,4.02c0.432,5.228-5.322,8.726-7.255,13.602
						c-1.696,4.272-0.171,9.32,2.817,12.813C575.518,582.873,578.489,591.878,586.012,592.553z"/>
				</g>
				<g>
					<path fill="#5A4FD6" d="M597.487,519.503c-3.725,28.852-4.7,46.484-4.184,75.57"/>
				</g>
			</g>
			<g>
				<g>
					<path fill="#622E98" d="M575.511,597.686c1.782-0.618,3.623-0.996,5.31-1.839c2.521-1.261,5.087-2.599,6.963-4.703
						c1.875-2.104,2.938-5.164,1.949-7.802c-0.617-1.642-1.934-2.929-2.67-4.52c-1.241-2.689-0.674-5.813-0.368-8.759
						s0.17-6.306-2.002-8.319c-2.479-2.295-6.719-1.956-8.965-4.483c-2.688-3.023-0.782-7.874-1.991-11.734
						c-0.754-2.408-2.669-4.247-4.544-5.934c-2.165-1.947-4.41-3.87-7.055-5.086c-2.643-1.219-5.769-1.663-8.471-0.581
						c-2.702,1.08-4.775,3.929-4.389,6.813c0.397,2.961,3.059,5.111,4.008,7.944c1.652,4.928-2.233,10.243-1.27,15.351
						c0.675,3.574,3.556,6.255,6.271,8.674c0.784,0.699,1.584,1.418,2.093,2.338c1.889,3.414-0.946,7.545-0.771,11.442
						c0.154,3.417,2.731,6.375,5.825,7.835C565.435,594.323,570.201,599.524,575.511,597.686z"/>
				</g>
				<g>
					<path fill="#5A4FD6" d="M560.991,544.622c6.281,20.71,11.004,32.971,20.235,52.547"/>
				</g>
			</g>
		</g>
		<g>
			<g>
				<g>
					<linearGradient id="SVGID_14_" gradientUnits="userSpaceOnUse" x1="574.2324" y1="556.8203" x2="619.9365" y2="556.8203">
						<stop  offset="0" style="stop-color:#FF7F8A"/>
						<stop  offset="0.1047" style="stop-color:#F6798B"/>
						<stop  offset="0.2787" style="stop-color:#DC6A8E"/>
						<stop  offset="0.5007" style="stop-color:#B35192"/>
						<stop  offset="0.7596" style="stop-color:#7A2E98"/>
						<stop  offset="0.7629" style="stop-color:#792E98"/>
					</linearGradient>
					<path fill="url(#SVGID_14_)" d="M588.25,601.579c2.525,0.227,4.991,0.778,7.524,0.675c3.784-0.153,7.668-0.378,11.127-1.922
						c3.459-1.543,6.451-4.709,6.692-8.488c0.148-2.353-0.755-4.655-0.778-7.013c-0.039-3.98,2.38-7.494,4.38-10.937
						c2-3.441,3.687-7.637,2.135-11.302c-1.771-4.183-7.156-6.106-8.515-10.44c-1.626-5.188,3.386-10.084,4.034-15.481
						c0.404-3.368-0.932-6.678-2.3-9.781c-1.577-3.579-3.27-7.174-5.837-10.124c-2.569-2.95-6.155-5.221-10.064-5.385
						c-3.907-0.166-8.021,2.183-9.138,5.932c-1.146,3.848,0.928,7.952,0.53,11.946c-0.693,6.951-8.387,11.324-10.023,18.115
						c-1.146,4.752,0.907,9.628,2.901,14.091c0.576,1.29,1.16,2.611,1.276,4.02c0.43,5.226-5.322,8.726-7.258,13.602
						c-1.695,4.271-0.168,9.32,2.817,12.813C577.755,591.899,580.727,600.904,588.25,601.579z"/>
				</g>
				<g>
					<path fill="#FFFFFF" d="M595.542,604.099c-0.292,0.006-0.664-4.229-0.896-11.093c-0.219-6.861-0.27-16.361,0.307-26.839
						c0.584-10.479,1.684-19.916,2.659-26.711c0.987-6.796,1.822-10.964,2.113-10.926c0.308,0.04,0.014,4.277-0.578,11.102
						c-0.581,6.826-1.432,16.239-2.013,26.657c-0.573,10.414-0.768,19.863-0.942,26.712
						C596.027,599.849,595.853,604.094,595.542,604.099z"/>
				</g>
			</g>
			<g>
				<g>
					<linearGradient id="SVGID_15_" gradientUnits="userSpaceOnUse" x1="551.4697" y1="574.7207" x2="592.3477" y2="574.7207">
						<stop  offset="0" style="stop-color:#FF7F8A"/>
						<stop  offset="0.1047" style="stop-color:#F6798B"/>
						<stop  offset="0.2787" style="stop-color:#DC6A8E"/>
						<stop  offset="0.5007" style="stop-color:#B35192"/>
						<stop  offset="0.7596" style="stop-color:#7A2E98"/>
						<stop  offset="0.7629" style="stop-color:#792E98"/>
					</linearGradient>
					<path fill="url(#SVGID_15_)" d="M577.749,606.711c1.782-0.616,3.625-0.996,5.31-1.838c2.522-1.261,5.088-2.599,6.964-4.702
						s2.938-5.165,1.947-7.803c-0.616-1.642-1.934-2.928-2.669-4.52c-1.241-2.689-0.673-5.813-0.367-8.758
						c0.307-2.945,0.169-6.307-2.003-8.319c-2.479-2.298-6.719-1.959-8.965-4.484c-2.688-3.023-0.78-7.874-1.989-11.734
						c-0.755-2.408-2.671-4.246-4.547-5.935c-2.162-1.946-4.41-3.868-7.053-5.087c-2.644-1.216-5.771-1.661-8.472-0.58
						c-2.702,1.082-4.776,3.931-4.389,6.815c0.398,2.961,3.058,5.111,4.008,7.944c1.652,4.927-2.232,10.243-1.271,15.35
						c0.675,3.573,3.557,6.255,6.272,8.674c0.785,0.7,1.585,1.418,2.093,2.338c1.888,3.414-0.946,7.545-0.771,11.443
						c0.155,3.417,2.731,6.375,5.824,7.833C567.673,603.349,572.439,608.551,577.749,606.711z"/>
				</g>
				<g>
					<path fill="#FFFFFF" d="M583.465,606.194c-0.268,0.126-1.874-2.604-4.173-7.172c-2.291-4.567-5.259-10.991-8.069-18.281
						c-2.807-7.296-4.913-14.051-6.28-18.977c-1.356-4.929-1.995-8.032-1.713-8.117c0.295-0.09,1.456,2.854,3.186,7.648
						c1.737,4.792,4.063,11.423,6.847,18.66c2.788,7.232,5.512,13.708,7.436,18.428
						C582.629,603.101,583.744,606.063,583.465,606.194z"/>
				</g>
			</g>
		</g>
	</g>
	<polygon opacity="0.2" fill="#2731A8" points="666.626,427.502 666.626,393.721 577.101,342.922 577.101,379.214 586.819,384.847 
		587.705,398.347 599.176,391.075 	"/>
	<g>
		<polygon fill="#13009B" points="665.033,420.214 665.033,386.432 575.508,335.636 575.508,371.927 585.227,377.559 
			586.112,391.058 597.583,383.786 		"/>
		
			<text transform="matrix(1.0056 0.5953 0.0547 0.9985 589.292 363.5757)" fill="#FFFFFF" font-family="'Gilroy-Light'" font-size="11.3552">BUY NOW!</text>
	</g>
	<g>
		<g>
			<g>
				<path fill="#416EAF" d="M498.871,716.708c-0.115-0.044-13.535,8.283-9.721,11.138c3.815,2.856,20.363-12.028,20.363-12.028
					L498.871,716.708z"/>
				<g>
					<path fill="#C5FFEE" d="M504.66,718.412c0.023,0.019-0.123,0.243-0.409,0.634c-0.289,0.387-0.715,0.943-1.287,1.598
						c-1.132,1.321-2.992,2.903-5.286,4.23c-1.14,0.677-2.265,1.248-3.292,1.749c-1.03,0.479-1.941,0.993-2.836,1.164
						c-0.883,0.159-1.595,0.071-2.074,0.019c-0.48-0.064-0.743-0.122-0.74-0.15c0.003-0.031,0.271-0.031,0.753-0.021
						c0.478,0.004,1.181,0.038,1.996-0.149c0.807-0.188,1.699-0.722,2.722-1.223c1.014-0.519,2.122-1.097,3.249-1.764
						C502.077,721.934,504.511,718.256,504.66,718.412z"/>
				</g>
				<g>
					<path fill="#C5FFEE" d="M496.716,722.677c0.019,0.016,0.026-0.018,0.011-0.026c-0.045,0.029-0.013,0.045-0.082,0.016
						c-0.101-0.039-0.234-0.108-0.395-0.197c-0.311-0.183-0.733-0.448-1.213-0.751c-0.941-0.613-1.652-1.193-1.587-1.295
						c0.067-0.102,0.884,0.315,1.826,0.93c0.472,0.298,0.884,0.613,1.163,0.871c0.141,0.125,0.248,0.233,0.315,0.313
						c0.014,0.016,0.12,0.127,0.01,0.193C496.689,722.744,496.69,722.656,496.716,722.677z"/>
				</g>
				<g>
					<path fill="#C5FFEE" d="M497.359,721.619c0.021-0.004,0.047,0.02,0.081,0.077l0.06,0.103l-0.154-0.037
						c-0.252-0.06-0.936-0.44-1.701-0.956c-0.936-0.628-1.639-1.218-1.571-1.318c0.067-0.1,0.88,0.328,1.815,0.956
						c0.765,0.516,1.375,1.006,1.525,1.215l-0.096,0.065C497.323,721.658,497.338,721.624,497.359,721.619z"/>
				</g>
				<g>
					<path fill="#C5FFEE" d="M498.554,720.886c-0.055,0.104-0.855-0.206-1.705-0.823c-0.853-0.614-1.397-1.277-1.315-1.362
						c0.086-0.089,0.747,0.414,1.571,1.008C497.926,720.305,498.611,720.776,498.554,720.886z"/>
				</g>
				<g>
					<path fill="#C5FFEE" d="M498.261,718.844c0,0,0.008,0.027-0.034,0.038c-0.046,0.001-0.083-0.036-0.111-0.088
						c-0.039-0.126-0.028-0.253-0.023-0.448c0.021-0.374,0.114-0.931,0.428-1.544c0.158-0.299,0.357-0.644,0.735-0.892
						c0.195-0.101,0.4-0.247,0.748-0.13c0.188,0.076,0.263,0.317,0.241,0.453c-0.012,0.148-0.055,0.256-0.086,0.362
						c-0.294,0.863-0.756,1.734-1.597,2.474c-0.273,0.208-0.684,0.175-0.928,0.032c-0.257-0.134-0.454-0.321-0.62-0.503
						c-0.334-0.357-0.618-0.735-0.856-1.116c-0.119-0.19-0.226-0.381-0.322-0.57c-0.05-0.103-0.087-0.173-0.141-0.3
						c-0.021-0.067-0.039-0.134-0.032-0.227c-0.007-0.081,0.086-0.249,0.225-0.27c0.281-0.005,0.279,0.091,0.389,0.123
						c0.084,0.05,0.166,0.104,0.244,0.158c0.155,0.107,0.293,0.226,0.418,0.345c0.992,1.006,0.984,1.962,0.946,1.939
						c-0.076,0.036-0.191-0.854-1.154-1.711c-0.121-0.102-0.251-0.203-0.397-0.294c-0.072-0.046-0.148-0.089-0.227-0.13l-0.12-0.061
						c-0.021-0.01-0.035-0.016-0.041-0.018c-0.003,0.011,0.014-0.089,0.006-0.076c0.007,0.014-0.017-0.023,0.002-0.002
						c0,0.01,0.088,0.028,0.078,0.026c-0.002,0.008,0.003,0.041,0.014,0.067l0.132,0.248c0.097,0.177,0.203,0.354,0.32,0.533
						c0.235,0.354,0.51,0.707,0.83,1.04c0.296,0.329,0.716,0.62,0.99,0.402c0.674-0.598,1.188-1.463,1.461-2.242
						c0.09-0.217,0.082-0.362,0.059-0.341c-0.05-0.037-0.262,0.013-0.392,0.094c-0.289,0.169-0.492,0.461-0.654,0.732
						c-0.325,0.55-0.459,1.063-0.529,1.417c-0.031,0.17-0.064,0.336-0.063,0.396C498.217,718.854,498.243,718.84,498.261,718.844z"
						/>
				</g>
				<g>
					<path fill="#C5FFEE" d="M494.281,726.26c-0.123,0.065-0.6-1.084-1.811-1.839c-1.205-0.762-2.447-0.693-2.44-0.832
						c-0.005-0.054,0.297-0.143,0.801-0.125c0.5,0.016,1.209,0.172,1.873,0.587c0.662,0.419,1.11,0.989,1.343,1.433
						C494.279,725.93,494.331,726.24,494.281,726.26z"/>
				</g>
				<g>
					<path fill="#C5FFEE" d="M502.966,718.702c0.065-0.011,0.1,0.261-0.107,0.547c-0.187,0.27-0.467,0.601-0.818,0.938
						c-0.701,0.676-1.394,1.071-1.464,0.976c-0.073-0.098,0.481-0.636,1.16-1.291c0.341-0.325,0.656-0.623,0.886-0.823
						C502.846,718.859,502.903,718.704,502.966,718.702z"/>
				</g>
			</g>
			<g>
				<path fill="#416EAF" d="M487.246,701.686c-0.114-0.044-13.536,8.283-9.721,11.14c3.815,2.855,20.363-12.028,20.363-12.028
					L487.246,701.686z"/>
				<g>
					<path fill="#C5FFEE" d="M494.629,702.089c0.022,0.021-0.167,0.245-0.529,0.631c-0.362,0.384-0.905,0.925-1.601,1.564
						c-1.39,1.282-3.415,2.947-5.823,4.545c-2.408,1.604-4.723,2.822-6.455,3.605c-0.915,0.378-1.731,0.33-2.255,0.26
						c-0.529-0.081-0.806-0.19-0.8-0.216c0.007-0.032,0.295,0.019,0.815,0.047c0.514,0.018,1.288,0.011,2.116-0.373
						c1.668-0.842,3.953-2.099,6.336-3.688c2.39-1.583,4.428-3.196,5.861-4.413C493.729,702.837,494.583,702.04,494.629,702.089z"/>
				</g>
				<g>
					<path fill="#C5FFEE" d="M483.274,710.776c-0.033,0.01-0.072-0.065-0.151-0.161c-0.075-0.1-0.216-0.146-0.469-0.258
						c-0.458-0.253-1.021-0.59-1.71-0.895c-0.68-0.301-1.329-0.54-1.785-0.662c-0.459-0.123-0.751-0.047-0.774-0.106
						c-0.031-0.048,0.282-0.253,0.822-0.198c0.529,0.055,1.2,0.252,1.917,0.568c0.707,0.312,1.309,0.729,1.685,1.024
						c0.188,0.117,0.419,0.273,0.463,0.444C483.321,710.686,483.299,710.771,483.274,710.776z"/>
				</g>
				<g>
					<path fill="#C5FFEE" d="M484.534,707.872c-0.113,0.037-0.478-0.679-1.294-1.247c-0.799-0.579-1.535-0.993-1.473-1.113
						c0.045-0.094,0.864,0.136,1.734,0.764c0.43,0.318,0.753,0.709,0.909,1.031C484.57,707.628,484.586,707.854,484.534,707.872z"/>
				</g>
				<g>
					<path fill="#C5FFEE" d="M485.415,706.41c-0.089,0.084-0.598-0.31-1.213-0.795c-0.612-0.489-1.114-0.896-1.052-1.001
						c0.06-0.104,0.683,0.147,1.323,0.658C485.115,705.779,485.503,706.328,485.415,706.41z"/>
				</g>
				<g>
					<path fill="#C5FFEE" d="M486.376,705.637c-0.111,0.06-0.539-0.574-1.229-1.181c-0.681-0.617-1.358-0.972-1.312-1.089
						c0.032-0.109,0.851,0.086,1.604,0.763C486.194,704.8,486.482,705.592,486.376,705.637z"/>
				</g>
				<g>
					<path fill="#C5FFEE" d="M486.376,702.791c-0.03,0.002-0.007-0.436,0.41-1.027c0.202-0.295,0.492-0.617,0.847-0.956
						c0.182-0.17,0.37-0.347,0.565-0.527c0.097-0.093,0.219-0.203,0.367-0.281c0.144-0.08,0.367-0.143,0.579-0.049l0.167,0.072
						l-0.073,0.17c-0.247,0.584-0.516,1.246-0.976,1.874c-0.229,0.313-0.513,0.607-0.864,0.845
						c-0.178,0.116-0.401,0.231-0.679,0.223c-0.284-0.013-0.499-0.172-0.661-0.3c-0.921-0.744-1.666-1.602-2.227-2.454
						c-0.064-0.094-0.168-0.243-0.189-0.414c-0.009-0.084-0.021-0.194,0.067-0.321c0.092-0.125,0.256-0.15,0.359-0.122
						c0.32,0.119,0.468,0.273,0.651,0.445c0.329,0.349,0.548,0.696,0.767,1.014c0.43,0.639,0.671,1.252,0.691,1.697
						c0.026,0.447-0.099,0.675-0.117,0.665c-0.039-0.008,0.023-0.24-0.053-0.643c-0.068-0.403-0.326-0.945-0.774-1.543
						c-0.227-0.296-0.472-0.644-0.769-0.933c-0.136-0.135-0.352-0.284-0.479-0.328c0-0.025-0.013-0.067-0.013-0.057
						c0.069,0.031,0.055,0.023,0.06,0.064c0.013,0.076,0.053,0.138,0.133,0.248c0.558,0.811,1.283,1.628,2.166,2.338
						c0.302,0.266,0.517,0.263,0.831,0.058c0.295-0.198,0.553-0.455,0.765-0.735c0.427-0.562,0.706-1.194,0.97-1.77l0.094,0.244
						c-0.131-0.075-0.381,0.068-0.566,0.245c-0.203,0.172-0.398,0.339-0.589,0.5c-0.364,0.312-0.664,0.6-0.879,0.86
						C486.517,702.412,486.424,702.806,486.376,702.791z"/>
				</g>
				<g>
					
						<ellipse transform="matrix(0.7734 -0.6339 0.6339 0.7734 -336.9083 469.394)" fill="#C5FFEE" cx="488.157" cy="705.98" rx="3.804" ry="0.218"/>
				</g>
			</g>
			<path fill="#33E7FF" d="M477.397,626.214c0,0-15.027,35.973-14.115,40.753c0.911,4.782,24.816,35.398,24.816,35.398l9.79-1.568
				c0,0-19.253-32.691-19.871-35.65c-0.62-2.96,11.333-27.322,11.333-27.322l6.255,78.663c0,0,7.871,5.21,14.47-0.347l-4.451-79.942
				L477.397,626.214z"/>
			<path fill="#270A51" d="M476.384,542.145c0,0-3.461,8.551,2.182,24.069c5.645,15.518,0.47,19.044,1.176,19.044
				s22.335-9.639,22.335-9.639l-9.638-35.034l-17.104,1.646"/>
			<path fill="#F4C4A4" d="M476.417,532.523c0,0-0.714,23.877,4.632,24.946c5.346,1.068,6.771,0,6.771,0v10.334
				c0,0,3.92,3.208,8.554,0c4.632-3.206,5.702-8.907,5.702-8.907l-4.634-26.373H476.417z"/>
			<path fill="#F28555" d="M487.043,566.563c0,0-5.765-0.326-7.07,4.4c-1.465,5.303-1.9,9.304-1.9,9.304l-1.402,5.294
				c-1.106,4.172-0.602,8.605,1.411,12.421l0,0l1.594,13.66l-2.277,14.572c0,0,28.829,20.819,31.01,3.041
				c0.168-1.375-5.965-32.641-5.965-32.641l7.853-1.7c0,0,3.978-20.798-15.365-26.759L487.043,566.563z"/>
			<path fill="#F4C4A4" d="M512.182,589.49c0,0,3.433,18.484,2.963,20.364c-0.471,1.881-2.382,27.04-2.382,27.04l-3.867-0.417
				c0,0,0.72-19.89,0.031-25.096c-0.687-5.203-5.203-19.069-5.203-19.069L512.182,589.49z"/>
			<path fill="#6523C4" d="M481.404,526.109c0,0-15.387,3.206-5.021,16.035l0.003-6.058c0,0,6.057,6.058,12.842,6.058
				c0,0-1.408,4.99,6.432,16.394c7.84,11.405-11.861,12.521,6.416,26.373c11.539,8.747,18.17,8.554,22.446-1.782
				c7.029-16.988-15.677-30.114-16.745-46.33C506.862,522.912,481.404,526.109,481.404,526.109z"/>
			<path opacity="0.15" fill="#2E5F99" d="M502.442,596.614c0,0-4.158,1.934-2.646,8.089c1.512,6.152-0.552,34.652,8.197,27.836
				l-0.227-8.238L502.442,596.614z"/>
			<g opacity="0.15">
				<path fill="#2E5F99" d="M489.582,602.965c-0.352,0.495-2.674-0.549-5.278-2.193c-2.604-1.647-4.542-3.296-4.245-3.826
					c0.292-0.522,2.755,0.299,5.411,1.98C488.13,600.604,489.929,602.475,489.582,602.965z"/>
			</g>
		</g>
		<g>
			<polygon fill="#5555BF" points="488.912,655.795 517.832,638.161 520.889,642.157 527.001,641.218 499.021,658.851 
				495.965,655.795 			"/>
			<path fill="#706EED" d="M484.443,700.938c0,0,6.349,0.706,7.289,1.176c0.94,0.471,6.818,5.173,6.818,5.173l0.471-48.436
				l-3.057-3.056h-7.053L484.443,700.938z"/>
			<polygon fill="#706EED" points="528.177,691.769 527.001,641.218 499.021,658.851 498.551,707.286 			"/>
			<path fill="none" stroke="#706EED" stroke-width="2" stroke-miterlimit="10" d="M505.84,663.083c0,0-8.229-17.634,2.115-23.512
				c10.347-5.878,13.873,14.343,13.873,14.343"/>
			<polygon opacity="0.38" fill="#2E5F99" points="495.965,655.795 491.732,702.113 484.443,700.938 488.912,655.795 			"/>
			<polygon opacity="0.46" fill="#ABD5FF" points="495.965,655.795 491.732,702.113 498.551,707.286 499.021,658.851 			"/>
			<path fill="none" stroke="#706EED" stroke-width="2" stroke-miterlimit="10" d="M500.281,648.862c0,0,2.194-8.571,8.646-10.701
				c3.836-1.267,6.261,1.652,6.261,1.652"/>
		</g>
		<path fill="#F4C4A4" d="M508.896,636.478c0,0-3.436,1.729-3.776,2.763c-0.34,1.034,2.705-1.082,3.213-0.93
			c0.506,0.153-3.127,5.486-2.535,5.408c0.594-0.076,2.95-2.573,2.95-2.573s-2.3,3.185-1.888,3.61
			c0.412,0.425,3.431-3.347,3.431-3.347s-2.229,3.108-1.805,3.234c0.421,0.128,3.037-3.102,3.413-3.615
			c0.377-0.514,0.864-4.134,0.864-4.134L508.896,636.478z"/>
	</g>
	<g>
		<circle opacity="0.48" fill="#6C42D3" cx="481.685" cy="345.257" r="4.296"/>
		<linearGradient id="SVGID_16_" gradientUnits="userSpaceOnUse" x1="481.6846" y1="257.7998" x2="481.9639" y2="257.7998">
			<stop  offset="0.0284" style="stop-color:#58CED8"/>
			<stop  offset="1" style="stop-color:#1D7CD8"/>
		</linearGradient>
		<line fill="url(#SVGID_16_)" x1="481.964" y1="345.256" x2="481.685" y2="170.344"/>
		<circle fill="#6C42D3" cx="481.685" cy="345.257" r="2.738"/>
	</g>
</g>
<linearGradient id="SVGID_17_" gradientUnits="userSpaceOnUse" x1="481" y1="257.4907" x2="481.8965" y2="257.4907">
	<stop  offset="0.0284" style="stop-color:#58CED8"/>
	<stop  offset="1" style="stop-color:#1D7CD8"/>
</linearGradient>
<polygon fill="url(#SVGID_17_)" points="481.344,170.625 481,345 481.625,344.875 481.896,169.981 "/>
</svg>
